<?xml version="1.0" encoding="UTF-8" standalone="no"?>
<svg
   xmlns:dc="http://purl.org/dc/elements/1.1/"
   xmlns:cc="http://creativecommons.org/ns#"
   xmlns:rdf="http://www.w3.org/1999/02/22-rdf-syntax-ns#"
   xmlns:svg="http://www.w3.org/2000/svg"
   xmlns="http://www.w3.org/2000/svg"
   id="svg5324"
   version="1.1"
   viewBox="0 0 248.76663 127.53441"
   height="482.01981"
   width="940.22034">
  <title
     id="title979">Restart</title>
  <defs
     id="defs5318" />
  <metadata
     id="metadata5321">
    <rdf:RDF>
      <cc:Work
         rdf:about="">
        <dc:format>image/svg+xml</dc:format>
        <dc:type
           rdf:resource="http://purl.org/dc/dcmitype/StillImage" />
        <dc:title>Restart</dc:title>
        <dc:creator>
          <cc:Agent>
            <dc:title>Arvin61r58</dc:title>
          </cc:Agent>
        </dc:creator>
        <dc:publisher>
          <cc:Agent>
            <dc:title>Openclipart.org</dc:title>
          </cc:Agent>
        </dc:publisher>
        <dc:identifier>https://openclipart.org/</dc:identifier>
        <dc:source>https://openclipart.org/user-detail/Arvin61r58</dc:source>
        <dc:subject>
          <rdf:Bag>
            <rdf:li>computer</rdf:li>
            <rdf:li>expression</rdf:li>
            <rdf:li>humor</rdf:li>
            <rdf:li>joke</rdf:li>
            <rdf:li>tech</rdf:li>
          </rdf:Bag>
        </dc:subject>
        <dc:description>Tech expression</dc:description>
        <cc:license
           rdf:resource="http://creativecommons.org/publicdomain/zero/1.0/" />
        <dc:contributor>
          <cc:Agent>
            <dc:title>IslandVibz (https://openclipart.org/detail/202362/computer-icon)

dear_theophilus (https://openclipart.org/detail/122083/sad-computer)</dc:title>
          </cc:Agent>
        </dc:contributor>
      </cc:Work>
      <cc:License
         rdf:about="http://creativecommons.org/publicdomain/zero/1.0/">
        <cc:permits
           rdf:resource="http://creativecommons.org/ns#Reproduction" />
        <cc:permits
           rdf:resource="http://creativecommons.org/ns#Distribution" />
        <cc:permits
           rdf:resource="http://creativecommons.org/ns#DerivativeWorks" />
      </cc:License>
    </rdf:RDF>
  </metadata>
  <g
     transform="translate(19.383316,-84.732791)"
     id="layer1">
    <g
       id="g977">
      <g
         id="g6955"
         transform="matrix(0.53986122,0,0,0.54,119.70543,58.761592)"
         style="stroke-width:1.85208988">
        <path
           id="path4595"
           d="m 20.35387,250.59897 v 31.22083 h 171.97916 v -31.22083 c 2.5744,-0.008 5.89756,-0.43128 7.29721,-2.91571 1.66687,-2.9554 0.90487,-7.30779 0.90487,-10.57804 V 214.08647 93.701052 60.098963 c 0,-4.466696 -1.64041,-9.011973 -6.87916,-9.250098 -14.92514,-0.678391 -30.03814,-0.01032 -44.97916,-0.01032 H 58.453869 26.968453 c -5.217583,0 -10.120312,-0.851165 -13.549577,3.96875 -2.259541,3.176323 -1.267089,8.466666 -1.267089,12.170833 V 96.0823 207.73647 232.87188 c 0,3.93171 -0.685536,8.6069 0.276225,12.43542 0.872066,3.47133 4.613275,5.22287 7.925858,5.29167 z"
           style="fill:#969075;fill-opacity:1;stroke-width:0.49003208" />
        <path
           id="path4609"
           d="M 22.470537,58.511463 V 243.7198 H 190.48095 V 58.511463 Z"
           style="fill:#c4bd9b;fill-opacity:1;stroke-width:0.49003208" />
        <path
           id="path4611"
           d="m 41.785119,73.465712 c -8.826499,1.91558 -6.085416,15.24794 -6.085416,21.82284 v 58.472918 12.43541 c 0,3.25967 -0.03439,6.43467 2.497667,8.87148 2.696103,2.59821 6.508749,1.97644 9.937749,1.97644 h 22.754166 68.791675 21.16666 c 3.34169,0 7.34219,0.59267 10.58334,-0.26988 8.24441,-2.19075 5.55625,-15.20295 5.55625,-21.69054 V 96.082302 82.853132 c 0,-2.98979 0.09,-5.71235 -2.39184,-7.85019 -2.61673,-2.2569 -6.84212,-1.67481 -10.04358,-1.67481 H 141.26846 73.799702 52.368452 c -3.352271,0 -7.305146,-0.57415 -10.583333,0.13758 z"
           style="fill:#969075;fill-opacity:1;stroke-width:0.49003208" />
        <path
           id="path4623"
           d="M 45.489285,80.471882 V 169.1073 H 167.19762 V 80.471882 Z"
           style="fill:#000000;stroke-width:0.49003208" />
        <path
           id="path4741"
           d="m 106.60804,207.47188 v 6.61459 h 62.44167 v -6.61459 z"
           style="fill:#969075;fill-opacity:1;stroke-width:0.49003208" />
        <path
           id="path4763"
           d="m 27.762203,252.45105 v 21.16667 H 184.9247 v -21.16667 z"
           style="fill:#c4bd9b;fill-opacity:1;stroke-width:0.49003208" />
        <g
           style="stroke-width:0.52916855"
           id="g4570"
           transform="matrix(0.92604165,0,0,0.92604166,2.1637669,36.94433)">
          <rect
             id="rect3159"
             style="fill:#00ec00;stroke-width:0.52916855"
             height="5"
             width="5"
             y="57.362"
             x="75" />
          <rect
             id="rect3161"
             style="fill:#00ec00;stroke-width:0.52916855"
             height="5"
             width="5"
             y="62.362"
             x="80" />
          <rect
             id="rect3163"
             style="fill:#00ec00;stroke-width:0.52916855"
             height="5"
             width="5"
             y="67.362"
             x="85" />
          <rect
             id="rect3165"
             style="fill:#00ec00;stroke-width:0.52916855"
             height="5"
             width="5"
             y="72.362"
             x="90" />
          <rect
             id="rect3175"
             style="fill:#00ec00;stroke-width:0.52916855"
             height="5"
             width="5"
             y="77.362"
             x="95" />
          <rect
             id="rect3177"
             style="fill:#00ec00;stroke-width:0.52916855"
             transform="scale(-1,1)"
             height="5"
             width="5"
             y="57.362"
             x="-100" />
          <rect
             id="rect3179"
             style="fill:#00ec00;stroke-width:0.52916855"
             transform="scale(-1,1)"
             height="5"
             width="5"
             y="62.362"
             x="-95" />
          <rect
             id="rect3181"
             style="fill:#00ec00;stroke-width:0.52916855"
             transform="scale(-1,1)"
             height="5"
             width="5"
             y="67.362"
             x="-90" />
          <rect
             id="rect3183"
             style="fill:#00ec00;stroke-width:0.52916855"
             transform="scale(-1,1)"
             height="5"
             width="5"
             y="72.362"
             x="-85" />
          <rect
             id="rect3185"
             style="fill:#00ec00;stroke-width:0.52916855"
             transform="scale(-1,1)"
             height="5"
             width="5"
             y="77.362"
             x="-80" />
          <rect
             id="rect3187"
             style="fill:#00ec00;stroke-width:0.52916855"
             height="5"
             width="5"
             y="57.362"
             x="125" />
          <rect
             id="rect3189"
             style="fill:#00ec00;stroke-width:0.52916855"
             height="5"
             width="5"
             y="62.362"
             x="130" />
          <rect
             id="rect3191"
             style="fill:#00ec00;stroke-width:0.52916855"
             height="5"
             width="5"
             y="67.362"
             x="135" />
          <rect
             id="rect3193"
             style="fill:#00ec00;stroke-width:0.52916855"
             height="5"
             width="5"
             y="72.362"
             x="140" />
          <rect
             id="rect3195"
             style="fill:#00ec00;stroke-width:0.52916855"
             height="5"
             width="5"
             y="77.362"
             x="145" />
          <rect
             id="rect3197"
             style="fill:#00ec00;stroke-width:0.52916855"
             transform="scale(-1,1)"
             height="5"
             width="5"
             y="57.362"
             x="-150" />
          <rect
             id="rect3199"
             style="fill:#00ec00;stroke-width:0.52916855"
             transform="scale(-1,1)"
             height="5"
             width="5"
             y="62.362"
             x="-145" />
          <rect
             id="rect3201"
             style="fill:#00ec00;stroke-width:0.52916855"
             transform="scale(-1,1)"
             height="5"
             width="5"
             y="67.362"
             x="-140" />
          <rect
             id="rect3203"
             style="fill:#00ec00;stroke-width:0.52916855"
             transform="scale(-1,1)"
             height="5"
             width="5"
             y="72.362"
             x="-135" />
          <rect
             id="rect3205"
             style="fill:#00ec00;stroke-width:0.52916855"
             transform="scale(-1,1)"
             height="5"
             width="5"
             y="77.362"
             x="-130" />
          <path
             style="fill:#00ec00;stroke-width:0.52916855"
             d="m 30.5,90.498047 v 5 5.000003 h 5 v -5.000003 -5 z"
             transform="translate(49.5,31.862)"
             id="rect3207" />
          <rect
             id="rect3211"
             style="fill:#00ec00;stroke-width:0.52916855"
             transform="scale(-1,1)"
             height="5"
             width="5"
             y="117.36"
             x="-90" />
          <path
             style="fill:#00ec00;stroke-width:0.52916855"
             d="m 40.5,80.498047 v 5 h 5 5 5 5 5 5 5 5 5 v -5 h -5 -5 -5 -5 -5 -5 -5 -5 z"
             transform="translate(49.5,31.862)"
             id="rect3213" />
          <path
             style="fill:#00ec00;stroke-width:0.52916855"
             d="m 90.5,90.498047 v 5 5.000003 h 5 v -5.000003 -5 z"
             transform="translate(49.5,31.862)"
             id="rect3231" />
          <rect
             id="rect3235"
             style="fill:#00ec00;stroke-width:0.52916855"
             height="5"
             width="5"
             y="117.36"
             x="135" />
        </g>
      </g>
      <g
         aria-label="Have you tried turning it off and on again?"
         style="font-style:normal;font-variant:normal;font-weight:500;font-stretch:normal;font-size:33.86666489px;line-height:0.89999998;font-family:'Glass TTY VT220';-inkscape-font-specification:'Glass TTY VT220, Medium';font-variant-ligatures:normal;font-variant-caps:normal;font-variant-numeric:normal;font-feature-settings:normal;text-align:center;writing-mode:lr-tb;text-anchor:middle;opacity:1;fill:#00ec00;fill-opacity:1;stroke:#004100;stroke-width:0.33077168;stroke-linecap:round;stroke-linejoin:round;stroke-miterlimit:4;stroke-dasharray:0.8820578, 0.88205780000000000;stroke-dashoffset:0;paint-order:fill markers stroke"
         id="text6897"
         transform="matrix(0.5998458,0,0,0.6,118.99071,63.579415)">
        <path
           d="m -217.79192,103.29884 q -0.3048,-0.16933 -0.3048,-0.7112 0,-0.54187 0.3048,-0.67733 0.33866,-0.16934 1.38853,-0.16934 1.04987,0 1.35467,0.16934 0.33866,0.13546 0.33866,0.67733 0,0.54187 -0.33866,0.7112 -0.3048,0.13547 -1.35467,0.13547 -1.04987,0 -1.38853,-0.13547 z m -10.16,0 q -0.3048,-0.16933 -0.3048,-0.7112 0,-0.54187 0.3048,-0.67733 0.33866,-0.16934 1.38853,-0.16934 1.04987,0 1.35467,0.16934 0.33866,0.13546 0.33866,0.67733 0,0.54187 -0.33866,0.7112 -0.3048,0.13547 -1.35467,0.13547 -1.04987,0 -1.38853,-0.13547 z m 10.16,-3.386667 q -0.3048,-0.169333 -0.3048,-0.7112 0,-0.541866 0.3048,-0.677333 0.33866,-0.169333 1.38853,-0.169333 1.04987,0 1.35467,0.169333 0.33866,0.135467 0.33866,0.677333 0,0.541867 -0.33866,0.7112 -0.3048,0.135467 -1.35467,0.135467 -1.04987,0 -1.38853,-0.135467 z m -10.16,0 q -0.3048,-0.169333 -0.3048,-0.7112 0,-0.541866 0.3048,-0.677333 0.33866,-0.169333 1.38853,-0.169333 1.04987,0 1.35467,0.169333 0.33866,0.135467 0.33866,0.677333 0,0.541867 -0.33866,0.7112 -0.3048,0.135467 -1.35467,0.135467 -1.04987,0 -1.38853,-0.135467 z m 10.16,-3.386666 q -0.3048,-0.169333 -0.3048,-0.7112 0,-0.541867 0.3048,-0.677333 0.33866,-0.169334 1.38853,-0.169334 1.04987,0 1.35467,0.169334 0.33866,0.135466 0.33866,0.677333 0,0.541867 -0.33866,0.7112 -0.3048,0.135467 -1.35467,0.135467 -1.04987,0 -1.38853,-0.135467 z m -10.16,0 q -0.3048,-0.169333 -0.3048,-0.7112 0,-0.541867 0.3048,-0.677333 0.33866,-0.169334 1.38853,-0.169334 1.04987,0 1.35467,0.169334 0.33866,0.135466 0.33866,0.677333 0,0.541867 -0.33866,0.7112 -0.3048,0.135467 -1.35467,0.135467 -1.04987,0 -1.38853,-0.135467 z m -0.3048,-4.097867 q 0,-0.508 0.508,-0.643466 0.8128,-0.2032 6.26533,-0.2032 5.85893,0 6.46853,0.3048 0.3048,0.135466 0.3048,0.541866 0,0.508 -0.508,0.643467 -0.8128,0.2032 -6.26533,0.2032 -5.85893,0 -6.46853,-0.3048 -0.3048,-0.135467 -0.3048,-0.541867 z m 10.4648,-2.675466 q -0.3048,-0.169333 -0.3048,-0.7112 0,-0.541867 0.3048,-0.677333 0.33866,-0.169334 1.38853,-0.169334 1.04987,0 1.35467,0.169334 0.33866,0.135466 0.33866,0.677333 0,0.541867 -0.33866,0.7112 -0.3048,0.135467 -1.35467,0.135467 -1.04987,0 -1.38853,-0.135467 z m -10.16,0 q -0.3048,-0.169333 -0.3048,-0.7112 0,-0.541867 0.3048,-0.677333 0.33866,-0.169334 1.38853,-0.169334 1.04987,0 1.35467,0.169334 0.33866,0.135466 0.33866,0.677333 0,0.541867 -0.33866,0.7112 -0.3048,0.135467 -1.35467,0.135467 -1.04987,0 -1.38853,-0.135467 z m 10.16,-3.386667 q -0.3048,-0.169333 -0.3048,-0.7112 0,-0.541866 0.3048,-0.677333 0.33866,-0.169333 1.38853,-0.169333 1.04987,0 1.35467,0.169333 0.33866,0.135467 0.33866,0.677333 0,0.541867 -0.33866,0.7112 -0.3048,0.135467 -1.35467,0.135467 -1.04987,0 -1.38853,-0.135467 z m -10.16,0 q -0.3048,-0.169333 -0.3048,-0.7112 0,-0.541866 0.3048,-0.677333 0.33866,-0.169333 1.38853,-0.169333 1.04987,0 1.35467,0.169333 0.33866,0.135467 0.33866,0.677333 0,0.541867 -0.33866,0.7112 -0.3048,0.135467 -1.35467,0.135467 -1.04987,0 -1.38853,-0.135467 z m 10.16,-3.386666 q -0.3048,-0.169333 -0.3048,-0.7112 0,-0.541867 0.3048,-0.677333 0.33866,-0.169334 1.38853,-0.169334 1.04987,0 1.35467,0.169334 0.33866,0.135466 0.33866,0.677333 0,0.541867 -0.33866,0.7112 -0.3048,0.135467 -1.35467,0.135467 -1.04987,0 -1.38853,-0.135467 z m -10.16,0 q -0.3048,-0.169333 -0.3048,-0.7112 0,-0.541867 0.3048,-0.677333 0.33866,-0.169334 1.38853,-0.169334 1.04987,0 1.35467,0.169334 0.33866,0.135466 0.33866,0.677333 0,0.541867 -0.33866,0.7112 -0.3048,0.135467 -1.35467,0.135467 -1.04987,0 -1.38853,-0.135467 z"
           id="path6957"
           style="stroke-width:0.33077168;stroke-miterlimit:4;stroke-dasharray:0.8820578, 0.88205780000000000;stroke-dashoffset:0" />
        <path
           d="m -209.63006,102.58764 q 0,-0.508 0.508,-0.64347 0.74507,-0.2032 5.41867,-0.2032 5.11387,0 5.65573,0.3048 0.27093,0.13547 0.27093,0.54187 0,0.508 -0.50799,0.64347 -0.74507,0.2032 -5.41867,0.2032 -5.11387,0 -5.65573,-0.3048 -0.27094,-0.13547 -0.27094,-0.54187 z m 7.2136,-2.675467 q -0.44026,-0.135466 -0.44026,-0.7112 0,-0.575733 0.44026,-0.7112 0.44027,-0.135466 2.09974,-0.135466 1.69333,0 2.09973,0.135466 0.44026,0.135467 0.44026,0.7112 0,0.575734 -0.44026,0.7112 -0.4064,0.135467 -2.09973,0.135467 -1.65947,0 -2.09974,-0.135467 z m -8.60213,0 q -0.3048,-0.169333 -0.3048,-0.7112 0,-0.541866 0.3048,-0.677333 0.33867,-0.169333 1.38853,-0.169333 1.04987,0 1.35467,0.169333 0.33867,0.135467 0.33867,0.677333 0,0.541867 -0.33867,0.7112 -0.3048,0.135467 -1.35467,0.135467 -1.04986,0 -1.38853,-0.135467 z m 1.38853,-4.097866 q 0,-0.508 0.508,-0.643467 0.74507,-0.2032 5.41867,-0.2032 5.11387,0 5.65573,0.3048 0.27093,0.135467 0.27093,0.541867 0,0.508 -0.50799,0.643467 -0.74507,0.2032 -5.41867,0.2032 -5.11387,0 -5.65573,-0.3048 -0.27094,-0.135467 -0.27094,-0.541867 z m 8.77147,-2.675467 q -0.3048,-0.169333 -0.3048,-0.7112 0,-0.541866 0.3048,-0.677333 0.33867,-0.169333 1.38853,-0.169333 1.04987,0 1.35467,0.169333 0.33866,0.135467 0.33866,0.677333 0,0.541867 -0.33866,0.7112 -0.3048,0.135467 -1.35467,0.135467 -1.04986,0 -1.38853,-0.135467 z m -8.77147,-4.097866 q 0,-0.541867 0.508,-0.677333 0.64347,-0.169334 4.572,-0.169334 4.3688,0 4.84294,0.3048 0.23706,0.135467 0.23706,0.541867 0,0.541867 -0.508,0.677333 -0.64346,0.169334 -4.572,0.169334 -4.3688,0 -4.84293,-0.3048 -0.23707,-0.135467 -0.23707,-0.541867 z"
           id="path6959"
           style="stroke-width:0.33077168;stroke-miterlimit:4;stroke-dasharray:0.8820578, 0.88205780000000000;stroke-dashoffset:0" />
        <path
           d="m -189.00526,103.29884 q -0.3048,-0.16933 -0.3048,-0.7112 0,-0.54187 0.3048,-0.67733 0.33867,-0.16934 1.38853,-0.16934 1.04987,0 1.35467,0.16934 0.33867,0.13546 0.33867,0.67733 0,0.54187 -0.33867,0.7112 -0.3048,0.13547 -1.35467,0.13547 -1.04986,0 -1.38853,-0.13547 z m -1.45627,-3.386667 q -0.54186,-0.135466 -0.54186,-0.7112 0,-0.575733 0.54186,-0.7112 0.54187,-0.135466 2.8448,-0.135466 2.30294,0 2.8448,0.135466 0.54187,0.135467 0.54187,0.7112 0,0.575734 -0.54187,0.7112 -0.54186,0.135467 -2.8448,0.135467 -2.30293,0 -2.8448,-0.135467 z m 4.84294,-3.386666 q -0.3048,-0.169333 -0.3048,-0.7112 0,-0.541867 0.3048,-0.677333 0.33866,-0.169334 1.38853,-0.169334 1.04987,0 1.35467,0.169334 0.33866,0.135466 0.33866,0.677333 0,0.541867 -0.33866,0.7112 -0.3048,0.135467 -1.35467,0.135467 -1.04987,0 -1.38853,-0.135467 z m -6.77334,0 q -0.3048,-0.169333 -0.3048,-0.7112 0,-0.541867 0.3048,-0.677333 0.33867,-0.169334 1.38854,-0.169334 1.04986,0 1.35466,0.169334 0.33867,0.135466 0.33867,0.677333 0,0.541867 -0.33867,0.7112 -0.3048,0.135467 -1.35466,0.135467 -1.04987,0 -1.38854,-0.135467 z m 8.46667,-3.386667 q -0.3048,-0.169333 -0.3048,-0.7112 0,-0.541866 0.3048,-0.677333 0.33867,-0.169333 1.38853,-0.169333 1.04987,0 1.35467,0.169333 0.33867,0.135467 0.33867,0.677333 0,0.541867 -0.33867,0.7112 -0.3048,0.135467 -1.35467,0.135467 -1.04986,0 -1.38853,-0.135467 z m -10.16,0 q -0.3048,-0.169333 -0.3048,-0.7112 0,-0.541866 0.3048,-0.677333 0.33867,-0.169333 1.38853,-0.169333 1.04987,0 1.35467,0.169333 0.33867,0.135467 0.33867,0.677333 0,0.541867 -0.33867,0.7112 -0.3048,0.135467 -1.35467,0.135467 -1.04986,0 -1.38853,-0.135467 z m 10.16,-3.386666 q -0.3048,-0.169333 -0.3048,-0.7112 0,-0.541867 0.3048,-0.677333 0.33867,-0.169334 1.38853,-0.169334 1.04987,0 1.35467,0.169334 0.33867,0.135466 0.33867,0.677333 0,0.541867 -0.33867,0.7112 -0.3048,0.135467 -1.35467,0.135467 -1.04986,0 -1.38853,-0.135467 z m -10.16,0 q -0.3048,-0.169333 -0.3048,-0.7112 0,-0.541867 0.3048,-0.677333 0.33867,-0.169334 1.38853,-0.169334 1.04987,0 1.35467,0.169334 0.33867,0.135466 0.33867,0.677333 0,0.541867 -0.33867,0.7112 -0.3048,0.135467 -1.35467,0.135467 -1.04986,0 -1.38853,-0.135467 z"
           id="path6961"
           style="stroke-width:0.33077168;stroke-miterlimit:4;stroke-dasharray:0.8820578, 0.88205780000000000;stroke-dashoffset:0" />
        <path
           d="m -175.76339,102.58764 q 0,-0.54187 0.508,-0.67733 0.64346,-0.16934 4.57199,-0.16934 4.3688,0 4.84294,0.3048 0.23706,0.13547 0.23706,0.54187 0,0.54187 -0.508,0.67733 -0.64346,0.16934 -4.572,0.16934 -4.36879,0 -4.84293,-0.3048 -0.23706,-0.13547 -0.23706,-0.54187 z m -1.38854,-2.675467 q -0.3048,-0.169333 -0.3048,-0.7112 0,-0.541866 0.3048,-0.677333 0.33867,-0.169333 1.38854,-0.169333 1.04986,0 1.35466,0.169333 0.33867,0.135467 0.33867,0.677333 0,0.541867 -0.33867,0.7112 -0.3048,0.135467 -1.35466,0.135467 -1.04987,0 -1.38854,-0.135467 z m -0.3048,-4.097866 q 0,-0.508 0.508,-0.643467 0.8128,-0.2032 6.26533,-0.2032 5.85894,0 6.46854,0.3048 0.3048,0.135467 0.3048,0.541867 0,0.508 -0.508,0.643467 -0.8128,0.2032 -6.26534,0.2032 -5.85893,0 -6.46853,-0.3048 -0.3048,-0.135467 -0.3048,-0.541867 z m 10.4648,-2.675467 q -0.3048,-0.169333 -0.3048,-0.7112 0,-0.541866 0.3048,-0.677333 0.33867,-0.169333 1.38853,-0.169333 1.04987,0 1.35467,0.169333 0.33867,0.135467 0.33867,0.677333 0,0.541867 -0.33867,0.7112 -0.3048,0.135467 -1.35467,0.135467 -1.04986,0 -1.38853,-0.135467 z m -10.16,0 q -0.3048,-0.169333 -0.3048,-0.7112 0,-0.541866 0.3048,-0.677333 0.33867,-0.169333 1.38854,-0.169333 1.04986,0 1.35466,0.169333 0.33867,0.135467 0.33867,0.677333 0,0.541867 -0.33867,0.7112 -0.3048,0.135467 -1.35466,0.135467 -1.04987,0 -1.38854,-0.135467 z m 1.38854,-4.097866 q 0,-0.541867 0.508,-0.677333 0.64346,-0.169334 4.57199,-0.169334 4.3688,0 4.84294,0.3048 0.23706,0.135467 0.23706,0.541867 0,0.541867 -0.508,0.677333 -0.64346,0.169334 -4.572,0.169334 -4.36879,0 -4.84293,-0.3048 -0.23706,-0.135467 -0.23706,-0.541867 z"
           id="path6963"
           style="stroke-width:0.33077168;stroke-miterlimit:4;stroke-dasharray:0.8820578, 0.88205780000000000;stroke-dashoffset:0" />
        <path
           d="m -141.82899,109.80124 q -0.0677,-0.13547 -0.0677,-0.44027 0,-0.3048 0.0677,-0.47413 0.1016,-0.13547 0.57573,-0.23707 0.508,-0.1016 1.25307,-0.13546 0.74506,0 2.3368,0 1.59173,0 2.3368,0 0.74506,0.0339 1.2192,0.13546 0.508,0.1016 0.57573,0.23707 0.1016,0.16933 0.1016,0.47413 0,0.3048 -0.1016,0.44027 -0.0677,0.16933 -0.57573,0.27093 -0.47414,0.1016 -1.2192,0.1016 -0.74507,0.0339 -2.3368,0.0339 -1.59174,0 -2.3368,-0.0339 -0.74507,0 -1.25307,-0.1016 -0.47413,-0.1016 -0.57573,-0.27093 z m 7.0104,-3.1496 q -0.3048,-0.13547 -0.3048,-0.67733 0,-0.54187 0.3048,-0.7112 0.33866,-0.13547 1.38853,-0.13547 1.04987,0 1.35467,0.13547 0.33866,0.16933 0.33866,0.7112 0,0.54186 -0.33866,0.67733 -0.3048,0.16933 -1.35467,0.16933 -1.04987,0 -1.38853,-0.16933 z m -8.46667,0 q -0.3048,-0.13547 -0.3048,-0.67733 0,-0.54187 0.3048,-0.7112 0.33867,-0.13547 1.38853,-0.13547 1.04987,0 1.35467,0.13547 0.33867,0.16933 0.33867,0.7112 0,0.54186 -0.33867,0.67733 -0.3048,0.16933 -1.35467,0.16933 -1.04986,0 -1.38853,-0.16933 z m 8.46667,-3.3528 q -0.3048,-0.16933 -0.3048,-0.7112 0,-0.54187 0.3048,-0.67733 0.33866,-0.16934 1.38853,-0.16934 1.04987,0 1.35467,0.16934 0.33866,0.13546 0.33866,0.67733 0,0.54187 -0.33866,0.7112 -0.3048,0.13547 -1.35467,0.13547 -1.04987,0 -1.38853,-0.13547 z m -7.07814,-4.097867 q 0,-0.541866 0.508,-0.677333 0.64347,-0.169333 4.572,-0.169333 4.3688,0 4.84294,0.3048 0.23706,0.135466 0.23706,0.541866 0,0.541867 -0.508,0.677334 -0.64346,0.169333 -4.572,0.169333 -4.3688,0 -4.84293,-0.3048 -0.23707,-0.135467 -0.23707,-0.541867 z m 5.52027,-2.675466 q -0.44027,-0.135467 -0.44027,-0.7112 0,-0.575733 0.44027,-0.7112 0.44027,-0.135467 2.09973,-0.135467 1.65947,0 2.09974,0.135467 0.44026,0.135467 0.44026,0.7112 0,0.575733 -0.44026,0.7112 -0.44027,0.135467 -2.09974,0.135467 -1.65946,0 -2.09973,-0.135467 z m -6.9088,0 q -0.3048,-0.169333 -0.3048,-0.7112 0,-0.541867 0.3048,-0.677333 0.33867,-0.169334 1.38853,-0.169334 1.04987,0 1.35467,0.169334 0.33867,0.135466 0.33867,0.677333 0,0.541867 -0.33867,0.7112 -0.3048,0.135467 -1.35467,0.135467 -1.04986,0 -1.38853,-0.135467 z m 8.46667,-3.386667 q -0.3048,-0.169333 -0.3048,-0.7112 0,-0.541866 0.3048,-0.677333 0.33866,-0.169333 1.38853,-0.169333 1.04987,0 1.35467,0.169333 0.33866,0.135467 0.33866,0.677333 0,0.541867 -0.33866,0.7112 -0.3048,0.135467 -1.35467,0.135467 -1.04987,0 -1.38853,-0.135467 z m -8.46667,0 q -0.3048,-0.169333 -0.3048,-0.7112 0,-0.541866 0.3048,-0.677333 0.33867,-0.169333 1.38853,-0.169333 1.04987,0 1.35467,0.169333 0.33867,0.135467 0.33867,0.677333 0,0.541867 -0.33867,0.7112 -0.3048,0.135467 -1.35467,0.135467 -1.04986,0 -1.38853,-0.135467 z m 8.46667,-3.386666 q -0.3048,-0.169333 -0.3048,-0.7112 0,-0.541867 0.3048,-0.677333 0.33866,-0.169334 1.38853,-0.169334 1.04987,0 1.35467,0.169334 0.33866,0.135466 0.33866,0.677333 0,0.541867 -0.33866,0.7112 -0.3048,0.135467 -1.35467,0.135467 -1.04987,0 -1.38853,-0.135467 z m -8.46667,0 q -0.3048,-0.169333 -0.3048,-0.7112 0,-0.541867 0.3048,-0.677333 0.33867,-0.169334 1.38853,-0.169334 1.04987,0 1.35467,0.169334 0.33867,0.135466 0.33867,0.677333 0,0.541867 -0.33867,0.7112 -0.3048,0.135467 -1.35467,0.135467 -1.04986,0 -1.38853,-0.135467 z"
           id="path6965"
           style="stroke-width:0.33077168;stroke-miterlimit:4;stroke-dasharray:0.8820578, 0.88205780000000000;stroke-dashoffset:0" />
        <path
           d="m -124.9634,102.58764 q 0,-0.54187 0.508,-0.67733 0.64347,-0.16934 4.572,-0.16934 4.3688,0 4.84293,0.3048 0.23707,0.13547 0.23707,0.54187 0,0.54187 -0.508,0.67733 -0.64347,0.16934 -4.572,0.16934 -4.3688,0 -4.84293,-0.3048 -0.23707,-0.13547 -0.23707,-0.54187 z m 8.77147,-2.675467 q -0.3048,-0.169333 -0.3048,-0.7112 0,-0.541866 0.3048,-0.677333 0.33866,-0.169333 1.38853,-0.169333 1.04987,0 1.35467,0.169333 0.33866,0.135467 0.33866,0.677333 0,0.541867 -0.33866,0.7112 -0.3048,0.135467 -1.35467,0.135467 -1.04987,0 -1.38853,-0.135467 z m -10.16,0 q -0.3048,-0.169333 -0.3048,-0.7112 0,-0.541866 0.3048,-0.677333 0.33866,-0.169333 1.38853,-0.169333 1.04987,0 1.35467,0.169333 0.33866,0.135467 0.33866,0.677333 0,0.541867 -0.33866,0.7112 -0.3048,0.135467 -1.35467,0.135467 -1.04987,0 -1.38853,-0.135467 z m 10.16,-3.386666 q -0.3048,-0.169333 -0.3048,-0.7112 0,-0.541867 0.3048,-0.677333 0.33866,-0.169334 1.38853,-0.169334 1.04987,0 1.35467,0.169334 0.33866,0.135466 0.33866,0.677333 0,0.541867 -0.33866,0.7112 -0.3048,0.135467 -1.35467,0.135467 -1.04987,0 -1.38853,-0.135467 z m -10.16,0 q -0.3048,-0.169333 -0.3048,-0.7112 0,-0.541867 0.3048,-0.677333 0.33866,-0.169334 1.38853,-0.169334 1.04987,0 1.35467,0.169334 0.33866,0.135466 0.33866,0.677333 0,0.541867 -0.33866,0.7112 -0.3048,0.135467 -1.35467,0.135467 -1.04987,0 -1.38853,-0.135467 z m 10.16,-3.386667 q -0.3048,-0.169333 -0.3048,-0.7112 0,-0.541866 0.3048,-0.677333 0.33866,-0.169333 1.38853,-0.169333 1.04987,0 1.35467,0.169333 0.33866,0.135467 0.33866,0.677333 0,0.541867 -0.33866,0.7112 -0.3048,0.135467 -1.35467,0.135467 -1.04987,0 -1.38853,-0.135467 z m -10.16,0 q -0.3048,-0.169333 -0.3048,-0.7112 0,-0.541866 0.3048,-0.677333 0.33866,-0.169333 1.38853,-0.169333 1.04987,0 1.35467,0.169333 0.33866,0.135467 0.33866,0.677333 0,0.541867 -0.33866,0.7112 -0.3048,0.135467 -1.35467,0.135467 -1.04987,0 -1.38853,-0.135467 z m 1.38853,-4.097866 q 0,-0.541867 0.508,-0.677333 0.64347,-0.169334 4.572,-0.169334 4.3688,0 4.84293,0.3048 0.23707,0.135467 0.23707,0.541867 0,0.541867 -0.508,0.677333 -0.64347,0.169334 -4.572,0.169334 -4.3688,0 -4.84293,-0.3048 -0.23707,-0.135467 -0.23707,-0.541867 z"
           id="path6967"
           style="stroke-width:0.33077168;stroke-miterlimit:4;stroke-dasharray:0.8820578, 0.88205780000000000;stroke-dashoffset:0" />
        <path
           d="m -108.03006,102.58764 q 0,-0.508 0.508,-0.64347 0.74506,-0.2032 5.41866,-0.2032 5.113868,0 5.655734,0.3048 0.270934,0.13547 0.270934,0.54187 0,0.508 -0.508,0.64347 -0.745067,0.2032 -5.418668,0.2032 -5.11387,0 -5.65573,-0.3048 -0.27093,-0.13547 -0.27093,-0.54187 z m 7.07813,-2.675467 q -0.3048,-0.169333 -0.3048,-0.7112 0,-0.541866 0.3048,-0.677333 0.33866,-0.169333 1.388531,-0.169333 1.049867,0 1.354667,0.169333 0.338667,0.135467 0.338667,0.677333 0,0.541867 -0.338667,0.7112 -0.3048,0.135467 -1.354667,0.135467 -1.049871,0 -1.388531,-0.135467 z m -8.46667,0 q -0.3048,-0.169333 -0.3048,-0.7112 0,-0.541866 0.3048,-0.677333 0.33867,-0.169333 1.38854,-0.169333 1.04986,0 1.35466,0.169333 0.33867,0.135467 0.33867,0.677333 0,0.541867 -0.33867,0.7112 -0.3048,0.135467 -1.35466,0.135467 -1.04987,0 -1.38854,-0.135467 z m 8.46667,-3.386666 q -0.3048,-0.169333 -0.3048,-0.7112 0,-0.541867 0.3048,-0.677333 0.33866,-0.169334 1.388531,-0.169334 1.049867,0 1.354667,0.169334 0.338667,0.135466 0.338667,0.677333 0,0.541867 -0.338667,0.7112 -0.3048,0.135467 -1.354667,0.135467 -1.049871,0 -1.388531,-0.135467 z m -8.46667,0 q -0.3048,-0.169333 -0.3048,-0.7112 0,-0.541867 0.3048,-0.677333 0.33867,-0.169334 1.38854,-0.169334 1.04986,0 1.35466,0.169334 0.33867,0.135466 0.33867,0.677333 0,0.541867 -0.33867,0.7112 -0.3048,0.135467 -1.35466,0.135467 -1.04987,0 -1.38854,-0.135467 z m 8.46667,-3.386667 q -0.3048,-0.169333 -0.3048,-0.7112 0,-0.541866 0.3048,-0.677333 0.33866,-0.169333 1.388531,-0.169333 1.049867,0 1.354667,0.169333 0.338667,0.135467 0.338667,0.677333 0,0.541867 -0.338667,0.7112 -0.3048,0.135467 -1.354667,0.135467 -1.049871,0 -1.388531,-0.135467 z m -8.46667,0 q -0.3048,-0.169333 -0.3048,-0.7112 0,-0.541866 0.3048,-0.677333 0.33867,-0.169333 1.38854,-0.169333 1.04986,0 1.35466,0.169333 0.33867,0.135467 0.33867,0.677333 0,0.541867 -0.33867,0.7112 -0.3048,0.135467 -1.35466,0.135467 -1.04987,0 -1.38854,-0.135467 z m 8.46667,-3.386666 q -0.3048,-0.169333 -0.3048,-0.7112 0,-0.541867 0.3048,-0.677333 0.33866,-0.169334 1.388531,-0.169334 1.049867,0 1.354667,0.169334 0.338667,0.135466 0.338667,0.677333 0,0.541867 -0.338667,0.7112 -0.3048,0.135467 -1.354667,0.135467 -1.049871,0 -1.388531,-0.135467 z m -8.46667,0 q -0.3048,-0.169333 -0.3048,-0.7112 0,-0.541867 0.3048,-0.677333 0.33867,-0.169334 1.38854,-0.169334 1.04986,0 1.35466,0.169334 0.33867,0.135466 0.33867,0.677333 0,0.541867 -0.33867,0.7112 -0.3048,0.135467 -1.35466,0.135467 -1.04987,0 -1.38854,-0.135467 z"
           id="path6969"
           style="stroke-width:0.33077168;stroke-miterlimit:4;stroke-dasharray:0.8820578, 0.88205780000000000;stroke-dashoffset:0" />
        <path
           d="m -70.336463,103.29884 q -0.440267,-0.13547 -0.440267,-0.7112 0,-0.57573 0.440267,-0.7112 0.440267,-0.13547 2.099733,-0.13547 1.659467,0 2.099733,0.13547 0.440267,0.13547 0.440267,0.7112 0,0.57573 -0.440267,0.7112 -0.440266,0.13547 -2.099733,0.13547 -1.659466,0 -2.099733,-0.13547 z m 3.2512,-3.386667 q -0.3048,-0.169333 -0.3048,-0.7112 0,-0.541866 0.3048,-0.677333 0.338666,-0.169333 1.388533,-0.169333 1.049867,0 1.354667,0.169333 0.338666,0.135467 0.338666,0.677333 0,0.541867 -0.338666,0.7112 -0.3048,0.135467 -1.354667,0.135467 -1.049867,0 -1.388533,-0.135467 z m -5.08,0 q -0.3048,-0.169333 -0.3048,-0.7112 0,-0.541866 0.3048,-0.677333 0.338667,-0.169333 1.388533,-0.169333 1.049867,0 1.354667,0.169333 0.338666,0.135467 0.338666,0.677333 0,0.541867 -0.338666,0.7112 -0.3048,0.135467 -1.354667,0.135467 -1.049866,0 -1.388533,-0.135467 z m 0,-3.386666 q -0.3048,-0.169333 -0.3048,-0.7112 0,-0.541867 0.3048,-0.677333 0.338667,-0.169334 1.388533,-0.169334 1.049867,0 1.354667,0.169334 0.338666,0.135466 0.338666,0.677333 0,0.541867 -0.338666,0.7112 -0.3048,0.135467 -1.354667,0.135467 -1.049866,0 -1.388533,-0.135467 z m 0,-3.386667 q -0.3048,-0.169333 -0.3048,-0.7112 0,-0.541866 0.3048,-0.677333 0.338667,-0.169333 1.388533,-0.169333 1.049867,0 1.354667,0.169333 0.338666,0.135467 0.338666,0.677333 0,0.541867 -0.338666,0.7112 -0.3048,0.135467 -1.354667,0.135467 -1.049866,0 -1.388533,-0.135467 z m -3.691467,-4.097866 q 0,-0.541867 0.508,-0.677333 0.643467,-0.169334 4.572,-0.169334 4.3688,0 4.842933,0.3048 0.237067,0.135467 0.237067,0.541867 0,0.541867 -0.508,0.677333 -0.643467,0.169334 -4.572,0.169334 -4.3688,0 -4.842933,-0.3048 -0.237067,-0.135467 -0.237067,-0.541867 z m 3.691467,-2.675467 q -0.3048,-0.169333 -0.3048,-0.7112 0,-0.541866 0.3048,-0.677333 0.338667,-0.169333 1.388533,-0.169333 1.049867,0 1.354667,0.169333 0.338666,0.135467 0.338666,0.677333 0,0.541867 -0.338666,0.7112 -0.3048,0.135467 -1.354667,0.135467 -1.049866,0 -1.388533,-0.135467 z m 0,-3.386666 q -0.3048,-0.169333 -0.3048,-0.7112 0,-0.541867 0.3048,-0.677333 0.338667,-0.169334 1.388533,-0.169334 1.049867,0 1.354667,0.169334 0.338666,0.135466 0.338666,0.677333 0,0.541867 -0.338666,0.7112 -0.3048,0.135467 -1.354667,0.135467 -1.049866,0 -1.388533,-0.135467 z"
           id="path6971"
           style="stroke-width:0.33077168;stroke-miterlimit:4;stroke-dasharray:0.8820578, 0.88205780000000000;stroke-dashoffset:0" />
        <path
           d="m -56.925262,103.29884 q -0.3048,-0.16933 -0.3048,-0.7112 0,-0.54187 0.3048,-0.67733 0.338667,-0.16934 1.388533,-0.16934 1.049867,0 1.354667,0.16934 0.338667,0.13546 0.338667,0.67733 0,0.54187 -0.338667,0.7112 -0.3048,0.13547 -1.354667,0.13547 -1.049866,0 -1.388533,-0.13547 z m 0,-3.386667 q -0.3048,-0.169333 -0.3048,-0.7112 0,-0.541866 0.3048,-0.677333 0.338667,-0.169333 1.388533,-0.169333 1.049867,0 1.354667,0.169333 0.338667,0.135467 0.338667,0.677333 0,0.541867 -0.338667,0.7112 -0.3048,0.135467 -1.354667,0.135467 -1.049866,0 -1.388533,-0.135467 z m 0,-3.386666 q -0.3048,-0.169333 -0.3048,-0.7112 0,-0.541867 0.3048,-0.677333 0.338667,-0.169334 1.388533,-0.169334 1.049867,0 1.354667,0.169334 0.338667,0.135466 0.338667,0.677333 0,0.541867 -0.338667,0.7112 -0.3048,0.135467 -1.354667,0.135467 -1.049866,0 -1.388533,-0.135467 z m 8.466666,-3.386667 q -0.3048,-0.169333 -0.3048,-0.7112 0,-0.541866 0.3048,-0.677333 0.338667,-0.169333 1.388534,-0.169333 1.049866,0 1.354666,0.169333 0.338667,0.135467 0.338667,0.677333 0,0.541867 -0.338667,0.7112 -0.3048,0.135467 -1.354666,0.135467 -1.049867,0 -1.388534,-0.135467 z m -8.331199,0 q -0.440267,-0.135466 -0.440267,-0.7112 0,-0.575733 0.440267,-0.7112 0.440266,-0.135466 2.099733,-0.135466 1.659467,0 2.099733,0.135466 0.440267,0.135467 0.440267,0.7112 0,0.575734 -0.440267,0.7112 -0.440266,0.135467 -2.099733,0.135467 -1.659467,0 -2.099733,-0.135467 z m 3.488266,-3.386666 q -0.541866,-0.135467 -0.541866,-0.7112 0,-0.575733 0.541866,-0.7112 0.541867,-0.135467 2.8448,-0.135467 2.302933,0 2.8448,0.135467 0.541867,0.135467 0.541867,0.7112 0,0.575733 -0.541867,0.7112 -0.541867,0.135467 -2.8448,0.135467 -2.302933,0 -2.8448,-0.135467 z m -5.317066,0 q -0.3048,-0.169333 -0.3048,-0.7112 0,-0.541867 0.3048,-0.677333 0.338666,-0.169334 1.388533,-0.169334 1.049867,0 1.354667,0.169334 0.338666,0.135466 0.338666,0.677333 0,0.541867 -0.338666,0.7112 -0.3048,0.135467 -1.354667,0.135467 -1.049867,0 -1.388533,-0.135467 z"
           id="path6973"
           style="stroke-width:0.33077168;stroke-miterlimit:4;stroke-dasharray:0.8820578, 0.88205780000000000;stroke-dashoffset:0" />
        <path
           d="m -40.296728,102.58764 q 0,-0.54187 0.508,-0.67733 0.643467,-0.16934 4.572,-0.16934 4.3688,0 4.842933,0.3048 0.237067,0.13547 0.237067,0.54187 0,0.54187 -0.508,0.67733 -0.643467,0.16934 -4.572,0.16934 -4.3688,0 -4.842933,-0.3048 -0.237067,-0.13547 -0.237067,-0.54187 z m 3.691467,-2.675467 q -0.3048,-0.169333 -0.3048,-0.7112 0,-0.541866 0.3048,-0.677333 0.338667,-0.169333 1.388533,-0.169333 1.049867,0 1.354667,0.169333 0.338666,0.135467 0.338666,0.677333 0,0.541867 -0.338666,0.7112 -0.3048,0.135467 -1.354667,0.135467 -1.049866,0 -1.388533,-0.135467 z m 0,-3.386666 q -0.3048,-0.169333 -0.3048,-0.7112 0,-0.541867 0.3048,-0.677333 0.338667,-0.169334 1.388533,-0.169334 1.049867,0 1.354667,0.169334 0.338666,0.135466 0.338666,0.677333 0,0.541867 -0.338666,0.7112 -0.3048,0.135467 -1.354667,0.135467 -1.049866,0 -1.388533,-0.135467 z m 0,-3.386667 q -0.3048,-0.169333 -0.3048,-0.7112 0,-0.541866 0.3048,-0.677333 0.338667,-0.169333 1.388533,-0.169333 1.049867,0 1.354667,0.169333 0.338666,0.135467 0.338666,0.677333 0,0.541867 -0.338666,0.7112 -0.3048,0.135467 -1.354667,0.135467 -1.049866,0 -1.388533,-0.135467 z m -1.557867,-3.386666 q -0.440266,-0.135467 -0.440266,-0.7112 0,-0.575733 0.440266,-0.7112 0.440267,-0.135467 2.099734,-0.135467 1.659466,0 2.099733,0.135467 0.440266,0.135467 0.440266,0.7112 0,0.575733 -0.440266,0.7112 -0.440267,0.135467 -2.099733,0.135467 -1.659467,0 -2.099734,-0.135467 z m 1.557867,-6.773333 q -0.3048,-0.169333 -0.3048,-0.7112 0,-0.541867 0.3048,-0.677333 0.338667,-0.169334 1.388533,-0.169334 1.049867,0 1.354667,0.169334 0.338666,0.135466 0.338666,0.677333 0,0.541867 -0.338666,0.7112 -0.3048,0.135467 -1.354667,0.135467 -1.049866,0 -1.388533,-0.135467 z"
           id="path6975"
           style="stroke-width:0.33077168;stroke-miterlimit:4;stroke-dasharray:0.8820578, 0.88205780000000000;stroke-dashoffset:0" />
        <path
           d="m -23.363408,102.58764 q 0,-0.54187 0.508,-0.67733 0.643466,-0.16934 4.571999,-0.16934 4.3688,0 4.842933,0.3048 0.237067,0.13547 0.237067,0.54187 0,0.54187 -0.508,0.67733 -0.643467,0.16934 -4.572,0.16934 -4.3688,0 -4.842933,-0.3048 -0.237066,-0.13547 -0.237066,-0.54187 z m -1.388534,-2.675467 q -0.3048,-0.169333 -0.3048,-0.7112 0,-0.541866 0.3048,-0.677333 0.338667,-0.169333 1.388534,-0.169333 1.049866,0 1.354666,0.169333 0.338667,0.135467 0.338667,0.677333 0,0.541867 -0.338667,0.7112 -0.3048,0.135467 -1.354666,0.135467 -1.049867,0 -1.388534,-0.135467 z m -0.3048,-4.097866 q 0,-0.508 0.508,-0.643467 0.8128,-0.2032 6.265333,-0.2032 5.858933,0 6.468533,0.3048 0.3048,0.135467 0.3048,0.541867 0,0.508 -0.508,0.643467 -0.8128,0.2032 -6.265333,0.2032 -5.858933,0 -6.468533,-0.3048 -0.3048,-0.135467 -0.3048,-0.541867 z m 10.4648,-2.675467 q -0.3048,-0.169333 -0.3048,-0.7112 0,-0.541866 0.3048,-0.677333 0.338666,-0.169333 1.388533,-0.169333 1.049867,0 1.354667,0.169333 0.338666,0.135467 0.338666,0.677333 0,0.541867 -0.338666,0.7112 -0.3048,0.135467 -1.354667,0.135467 -1.049867,0 -1.388533,-0.135467 z m -10.16,0 q -0.3048,-0.169333 -0.3048,-0.7112 0,-0.541866 0.3048,-0.677333 0.338667,-0.169333 1.388534,-0.169333 1.049866,0 1.354666,0.169333 0.338667,0.135467 0.338667,0.677333 0,0.541867 -0.338667,0.7112 -0.3048,0.135467 -1.354666,0.135467 -1.049867,0 -1.388534,-0.135467 z m 1.388534,-4.097866 q 0,-0.541867 0.508,-0.677333 0.643466,-0.169334 4.571999,-0.169334 4.3688,0 4.842933,0.3048 0.237067,0.135467 0.237067,0.541867 0,0.541867 -0.508,0.677333 -0.643467,0.169334 -4.572,0.169334 -4.3688,0 -4.842933,-0.3048 -0.237066,-0.135467 -0.237066,-0.541867 z"
           id="path6977"
           style="stroke-width:0.33077168;stroke-miterlimit:4;stroke-dasharray:0.8820578, 0.88205780000000000;stroke-dashoffset:0" />
        <path
           d="m -6.4300741,102.58764 q 0,-0.508 0.508,-0.64347 0.7450666,-0.2032 5.41866634,-0.2032 5.11386636,0 5.65573306,0.3048 0.2709333,0.13547 0.2709333,0.54187 0,0.508 -0.508,0.64347 -0.7450666,0.2032 -5.41866636,0.2032 -5.11386644,0 -5.65573304,-0.3048 -0.2709333,-0.13547 -0.2709333,-0.54187 z m 7.2135996,-2.675467 q -0.44026664,-0.135466 -0.44026664,-0.7112 0,-0.575733 0.44026664,-0.7112 0.4402666,-0.135466 2.0997332,-0.135466 1.6933333,0 2.0997332,0.135466 0.4402667,0.135467 0.4402667,0.7112 0,0.575734 -0.4402667,0.7112 -0.4063999,0.135467 -2.0997332,0.135467 -1.6594666,0 -2.0997332,-0.135467 z m -8.6021329,0 q -0.3048,-0.169333 -0.3048,-0.7112 0,-0.541866 0.3048,-0.677333 0.3386667,-0.169333 1.3885333,-0.169333 1.0498666,0 1.3546666,0.169333 0.3386666,0.135467 0.3386666,0.677333 0,0.541867 -0.3386666,0.7112 -0.3048,0.135467 -1.3546666,0.135467 -1.0498666,0 -1.3885333,-0.135467 z M 2.3413921,96.525507 q -0.3048,-0.169333 -0.3048,-0.7112 0,-0.541867 0.3048,-0.677333 0.3386666,-0.169334 1.3885332,-0.169334 1.0498667,0 1.3546666,0.169334 0.3386667,0.135466 0.3386667,0.677333 0,0.541867 -0.3386667,0.7112 -0.3047999,0.135467 -1.3546666,0.135467 -1.0498666,0 -1.3885332,-0.135467 z m -10.1599995,0 q -0.3048,-0.169333 -0.3048,-0.7112 0,-0.541867 0.3048,-0.677333 0.3386667,-0.169334 1.3885333,-0.169334 1.0498666,0 1.3546666,0.169334 0.3386666,0.135466 0.3386666,0.677333 0,0.541867 -0.3386666,0.7112 -0.3048,0.135467 -1.3546666,0.135467 -1.0498666,0 -1.3885333,-0.135467 z M 0.7835255,93.13884 q -0.44026664,-0.135466 -0.44026664,-0.7112 0,-0.575733 0.44026664,-0.7112 0.4402666,-0.135466 2.0997332,-0.135466 1.6933333,0 2.0997332,0.135466 0.4402667,0.135467 0.4402667,0.7112 0,0.575734 -0.4402667,0.7112 -0.4063999,0.135467 -2.0997332,0.135467 -1.6594666,0 -2.0997332,-0.135467 z m -8.6021329,0 q -0.3048,-0.169333 -0.3048,-0.7112 0,-0.541866 0.3048,-0.677333 0.3386667,-0.169333 1.3885333,-0.169333 1.0498666,0 1.3546666,0.169333 0.3386666,0.135467 0.3386666,0.677333 0,0.541867 -0.3386666,0.7112 -0.3048,0.135467 -1.3546666,0.135467 -1.0498666,0 -1.3885333,-0.135467 z m 1.3885333,-4.097866 q 0,-0.508 0.508,-0.643467 0.7450666,-0.2032 5.41866634,-0.2032 5.11386636,0 5.65573306,0.3048 0.2709333,0.135467 0.2709333,0.541867 0,0.508 -0.508,0.643467 -0.7450666,0.2032 -5.41866636,0.2032 -5.11386644,0 -5.65573304,-0.3048 -0.2709333,-0.135467 -0.2709333,-0.541867 z m 8.7714662,-2.675467 q -0.3048,-0.169333 -0.3048,-0.7112 0,-0.541866 0.3048,-0.677333 0.3386666,-0.169333 1.3885332,-0.169333 1.0498667,0 1.3546666,0.169333 0.3386667,0.135467 0.3386667,0.677333 0,0.541867 -0.3386667,0.7112 -0.3047999,0.135467 -1.3546666,0.135467 -1.0498666,0 -1.3885332,-0.135467 z m 0,-3.386666 q -0.3048,-0.169333 -0.3048,-0.7112 0,-0.541867 0.3048,-0.677333 0.3386666,-0.169334 1.3885332,-0.169334 1.0498667,0 1.3546666,0.169334 0.3386667,0.135466 0.3386667,0.677333 0,0.541867 -0.3386667,0.7112 -0.3047999,0.135467 -1.3546666,0.135467 -1.0498666,0 -1.3885332,-0.135467 z"
           id="path6979"
           style="stroke-width:0.33077168;stroke-miterlimit:4;stroke-dasharray:0.8820578, 0.88205780000000000;stroke-dashoffset:0" />
        <path
           d="m -188.86979,133.77884 q -0.44027,-0.13547 -0.44027,-0.7112 0,-0.57574 0.44027,-0.7112 0.44026,-0.13547 2.09973,-0.13547 1.65947,0 2.09973,0.13547 0.44027,0.13546 0.44027,0.7112 0,0.57573 -0.44027,0.7112 -0.44026,0.13546 -2.09973,0.13546 -1.65947,0 -2.09973,-0.13546 z m 3.2512,-3.38667 q -0.3048,-0.16933 -0.3048,-0.7112 0,-0.54187 0.3048,-0.67733 0.33866,-0.16934 1.38853,-0.16934 1.04987,0 1.35467,0.16934 0.33866,0.13546 0.33866,0.67733 0,0.54187 -0.33866,0.7112 -0.3048,0.13547 -1.35467,0.13547 -1.04987,0 -1.38853,-0.13547 z m -5.08,0 q -0.3048,-0.16933 -0.3048,-0.7112 0,-0.54187 0.3048,-0.67733 0.33866,-0.16934 1.38853,-0.16934 1.04987,0 1.35467,0.16934 0.33866,0.13546 0.33866,0.67733 0,0.54187 -0.33866,0.7112 -0.3048,0.13547 -1.35467,0.13547 -1.04987,0 -1.38853,-0.13547 z m 0,-3.38667 q -0.3048,-0.16933 -0.3048,-0.7112 0,-0.54186 0.3048,-0.67733 0.33866,-0.16933 1.38853,-0.16933 1.04987,0 1.35467,0.16933 0.33866,0.13547 0.33866,0.67733 0,0.54187 -0.33866,0.7112 -0.3048,0.13547 -1.35467,0.13547 -1.04987,0 -1.38853,-0.13547 z m 0,-3.38666 q -0.3048,-0.16934 -0.3048,-0.7112 0,-0.54187 0.3048,-0.67734 0.33866,-0.16933 1.38853,-0.16933 1.04987,0 1.35467,0.16933 0.33866,0.13547 0.33866,0.67734 0,0.54186 -0.33866,0.7112 -0.3048,0.13546 -1.35467,0.13546 -1.04987,0 -1.38853,-0.13546 z m -3.69147,-4.09787 q 0,-0.54187 0.508,-0.67733 0.64347,-0.16934 4.572,-0.16934 4.3688,0 4.84293,0.3048 0.23707,0.13547 0.23707,0.54187 0,0.54187 -0.508,0.67733 -0.64347,0.16934 -4.572,0.16934 -4.3688,0 -4.84293,-0.3048 -0.23707,-0.13547 -0.23707,-0.54187 z m 3.69147,-2.67546 q -0.3048,-0.16934 -0.3048,-0.7112 0,-0.54187 0.3048,-0.67734 0.33866,-0.16933 1.38853,-0.16933 1.04987,0 1.35467,0.16933 0.33866,0.13547 0.33866,0.67734 0,0.54186 -0.33866,0.7112 -0.3048,0.13546 -1.35467,0.13546 -1.04987,0 -1.38853,-0.13546 z m 0,-3.38667 q -0.3048,-0.16933 -0.3048,-0.7112 0,-0.54187 0.3048,-0.67733 0.33866,-0.16934 1.38853,-0.16934 1.04987,0 1.35467,0.16934 0.33866,0.13546 0.33866,0.67733 0,0.54187 -0.33866,0.7112 -0.3048,0.13547 -1.35467,0.13547 -1.04987,0 -1.38853,-0.13547 z"
           id="path6981"
           style="stroke-width:0.33077168;stroke-miterlimit:4;stroke-dasharray:0.8820578, 0.88205780000000000;stroke-dashoffset:0" />
        <path
           d="m -175.76339,133.06764 q 0,-0.508 0.508,-0.64347 0.74506,-0.2032 5.41866,-0.2032 5.11387,0 5.65574,0.3048 0.27093,0.13547 0.27093,0.54187 0,0.508 -0.508,0.64346 -0.74507,0.2032 -5.41867,0.2032 -5.11386,0 -5.65573,-0.3048 -0.27093,-0.13546 -0.27093,-0.54186 z m 7.07813,-2.67547 q -0.3048,-0.16933 -0.3048,-0.7112 0,-0.54187 0.3048,-0.67733 0.33867,-0.16934 1.38853,-0.16934 1.04987,0 1.35467,0.16934 0.33867,0.13546 0.33867,0.67733 0,0.54187 -0.33867,0.7112 -0.3048,0.13547 -1.35467,0.13547 -1.04986,0 -1.38853,-0.13547 z m -8.46667,0 q -0.3048,-0.16933 -0.3048,-0.7112 0,-0.54187 0.3048,-0.67733 0.33867,-0.16934 1.38854,-0.16934 1.04986,0 1.35466,0.16934 0.33867,0.13546 0.33867,0.67733 0,0.54187 -0.33867,0.7112 -0.3048,0.13547 -1.35466,0.13547 -1.04987,0 -1.38854,-0.13547 z m 8.46667,-3.38667 q -0.3048,-0.16933 -0.3048,-0.7112 0,-0.54186 0.3048,-0.67733 0.33867,-0.16933 1.38853,-0.16933 1.04987,0 1.35467,0.16933 0.33867,0.13547 0.33867,0.67733 0,0.54187 -0.33867,0.7112 -0.3048,0.13547 -1.35467,0.13547 -1.04986,0 -1.38853,-0.13547 z m -8.46667,0 q -0.3048,-0.16933 -0.3048,-0.7112 0,-0.54186 0.3048,-0.67733 0.33867,-0.16933 1.38854,-0.16933 1.04986,0 1.35466,0.16933 0.33867,0.13547 0.33867,0.67733 0,0.54187 -0.33867,0.7112 -0.3048,0.13547 -1.35466,0.13547 -1.04987,0 -1.38854,-0.13547 z m 8.46667,-3.38666 q -0.3048,-0.16934 -0.3048,-0.7112 0,-0.54187 0.3048,-0.67734 0.33867,-0.16933 1.38853,-0.16933 1.04987,0 1.35467,0.16933 0.33867,0.13547 0.33867,0.67734 0,0.54186 -0.33867,0.7112 -0.3048,0.13546 -1.35467,0.13546 -1.04986,0 -1.38853,-0.13546 z m -8.46667,0 q -0.3048,-0.16934 -0.3048,-0.7112 0,-0.54187 0.3048,-0.67734 0.33867,-0.16933 1.38854,-0.16933 1.04986,0 1.35466,0.16933 0.33867,0.13547 0.33867,0.67734 0,0.54186 -0.33867,0.7112 -0.3048,0.13546 -1.35466,0.13546 -1.04987,0 -1.38854,-0.13546 z m 8.46667,-3.38667 q -0.3048,-0.16933 -0.3048,-0.7112 0,-0.54187 0.3048,-0.67733 0.33867,-0.16934 1.38853,-0.16934 1.04987,0 1.35467,0.16934 0.33867,0.13546 0.33867,0.67733 0,0.54187 -0.33867,0.7112 -0.3048,0.13547 -1.35467,0.13547 -1.04986,0 -1.38853,-0.13547 z m -8.46667,0 q -0.3048,-0.16933 -0.3048,-0.7112 0,-0.54187 0.3048,-0.67733 0.33867,-0.16934 1.38854,-0.16934 1.04986,0 1.35466,0.16934 0.33867,0.13546 0.33867,0.67733 0,0.54187 -0.33867,0.7112 -0.3048,0.13547 -1.35466,0.13547 -1.04987,0 -1.38854,-0.13547 z"
           id="path6983"
           style="stroke-width:0.33077168;stroke-miterlimit:4;stroke-dasharray:0.8820578, 0.88205780000000000;stroke-dashoffset:0" />
        <path
           d="m -158.52526,133.77884 q -0.3048,-0.16934 -0.3048,-0.7112 0,-0.54187 0.3048,-0.67734 0.33867,-0.16933 1.38853,-0.16933 1.04987,0 1.35467,0.16933 0.33867,0.13547 0.33867,0.67734 0,0.54186 -0.33867,0.7112 -0.3048,0.13546 -1.35467,0.13546 -1.04986,0 -1.38853,-0.13546 z m 0,-3.38667 q -0.3048,-0.16933 -0.3048,-0.7112 0,-0.54187 0.3048,-0.67733 0.33867,-0.16934 1.38853,-0.16934 1.04987,0 1.35467,0.16934 0.33867,0.13546 0.33867,0.67733 0,0.54187 -0.33867,0.7112 -0.3048,0.13547 -1.35467,0.13547 -1.04986,0 -1.38853,-0.13547 z m 0,-3.38667 q -0.3048,-0.16933 -0.3048,-0.7112 0,-0.54186 0.3048,-0.67733 0.33867,-0.16933 1.38853,-0.16933 1.04987,0 1.35467,0.16933 0.33867,0.13547 0.33867,0.67733 0,0.54187 -0.33867,0.7112 -0.3048,0.13547 -1.35467,0.13547 -1.04986,0 -1.38853,-0.13547 z m 8.46667,-3.38666 q -0.3048,-0.16934 -0.3048,-0.7112 0,-0.54187 0.3048,-0.67734 0.33866,-0.16933 1.38853,-0.16933 1.04987,0 1.35467,0.16933 0.33866,0.13547 0.33866,0.67734 0,0.54186 -0.33866,0.7112 -0.3048,0.13546 -1.35467,0.13546 -1.04987,0 -1.38853,-0.13546 z m -8.3312,0 q -0.44027,-0.13547 -0.44027,-0.7112 0,-0.57574 0.44027,-0.7112 0.44026,-0.13547 2.09973,-0.13547 1.65947,0 2.09973,0.13547 0.44027,0.13546 0.44027,0.7112 0,0.57573 -0.44027,0.7112 -0.44026,0.13546 -2.09973,0.13546 -1.65947,0 -2.09973,-0.13546 z m 3.48826,-3.38667 q -0.54186,-0.13547 -0.54186,-0.7112 0,-0.57573 0.54186,-0.7112 0.54187,-0.13547 2.8448,-0.13547 2.30294,0 2.8448,0.13547 0.54187,0.13547 0.54187,0.7112 0,0.57573 -0.54187,0.7112 -0.54186,0.13547 -2.8448,0.13547 -2.30293,0 -2.8448,-0.13547 z m -5.31706,0 q -0.3048,-0.16933 -0.3048,-0.7112 0,-0.54187 0.3048,-0.67733 0.33866,-0.16934 1.38853,-0.16934 1.04987,0 1.35467,0.16934 0.33866,0.13546 0.33866,0.67733 0,0.54187 -0.33866,0.7112 -0.3048,0.13547 -1.35467,0.13547 -1.04987,0 -1.38853,-0.13547 z"
           id="path6985"
           style="stroke-width:0.33077168;stroke-miterlimit:4;stroke-dasharray:0.8820578, 0.88205780000000000;stroke-dashoffset:0" />
        <path
           d="m -133.12526,133.77884 q -0.3048,-0.16934 -0.3048,-0.7112 0,-0.54187 0.3048,-0.67734 0.33866,-0.16933 1.38853,-0.16933 1.04987,0 1.35467,0.16933 0.33866,0.13547 0.33866,0.67734 0,0.54186 -0.33866,0.7112 -0.3048,0.13546 -1.35467,0.13546 -1.04987,0 -1.38853,-0.13546 z m -10.16,0 q -0.3048,-0.16934 -0.3048,-0.7112 0,-0.54187 0.3048,-0.67734 0.33866,-0.16933 1.38853,-0.16933 1.04987,0 1.35467,0.16933 0.33866,0.13547 0.33866,0.67734 0,0.54186 -0.33866,0.7112 -0.3048,0.13546 -1.35467,0.13546 -1.04987,0 -1.38853,-0.13546 z m 10.16,-3.38667 q -0.3048,-0.16933 -0.3048,-0.7112 0,-0.54187 0.3048,-0.67733 0.33866,-0.16934 1.38853,-0.16934 1.04987,0 1.35467,0.16934 0.33866,0.13546 0.33866,0.67733 0,0.54187 -0.33866,0.7112 -0.3048,0.13547 -1.35467,0.13547 -1.04987,0 -1.38853,-0.13547 z m -10.16,0 q -0.3048,-0.16933 -0.3048,-0.7112 0,-0.54187 0.3048,-0.67733 0.33866,-0.16934 1.38853,-0.16934 1.04987,0 1.35467,0.16934 0.33866,0.13546 0.33866,0.67733 0,0.54187 -0.33866,0.7112 -0.3048,0.13547 -1.35467,0.13547 -1.04987,0 -1.38853,-0.13547 z m 10.16,-3.38667 q -0.3048,-0.16933 -0.3048,-0.7112 0,-0.54186 0.3048,-0.67733 0.33866,-0.16933 1.38853,-0.16933 1.04987,0 1.35467,0.16933 0.33866,0.13547 0.33866,0.67733 0,0.54187 -0.33866,0.7112 -0.3048,0.13547 -1.35467,0.13547 -1.04987,0 -1.38853,-0.13547 z m -10.16,0 q -0.3048,-0.16933 -0.3048,-0.7112 0,-0.54186 0.3048,-0.67733 0.33866,-0.16933 1.38853,-0.16933 1.04987,0 1.35467,0.16933 0.33866,0.13547 0.33866,0.67733 0,0.54187 -0.33866,0.7112 -0.3048,0.13547 -1.35467,0.13547 -1.04987,0 -1.38853,-0.13547 z m 10.16,-3.38666 q -0.3048,-0.16934 -0.3048,-0.7112 0,-0.54187 0.3048,-0.67734 0.33866,-0.16933 1.38853,-0.16933 1.04987,0 1.35467,0.16933 0.33866,0.13547 0.33866,0.67734 0,0.54186 -0.33866,0.7112 -0.3048,0.13546 -1.35467,0.13546 -1.04987,0 -1.38853,-0.13546 z m -10.02454,0 q -0.44026,-0.13547 -0.44026,-0.7112 0,-0.57574 0.44026,-0.7112 0.44027,-0.13547 2.09974,-0.13547 1.65946,0 2.09973,0.13547 0.44027,0.13546 0.44027,0.7112 0,0.57573 -0.44027,0.7112 -0.44027,0.13546 -2.09973,0.13546 -1.65947,0 -2.09974,-0.13546 z m -0.44026,-4.09787 q 0,-0.508 0.508,-0.64347 0.74506,-0.2032 5.41866,-0.2032 5.11387,0 5.65574,0.3048 0.27093,0.13547 0.27093,0.54187 0,0.508 -0.508,0.64347 -0.74507,0.2032 -5.41867,0.2032 -5.11386,0 -5.65573,-0.3048 -0.27093,-0.13547 -0.27093,-0.54187 z"
           id="path6987"
           style="stroke-width:0.33077168;stroke-miterlimit:4;stroke-dasharray:0.8820578, 0.88205780000000000;stroke-dashoffset:0" />
        <path
           d="m -124.9634,133.06764 q 0,-0.54187 0.508,-0.67734 0.64347,-0.16933 4.572,-0.16933 4.3688,0 4.84294,0.3048 0.23706,0.13547 0.23706,0.54187 0,0.54186 -0.508,0.67733 -0.64346,0.16933 -4.572,0.16933 -4.3688,0 -4.84293,-0.3048 -0.23707,-0.13546 -0.23707,-0.54186 z m 3.69147,-2.67547 q -0.3048,-0.16933 -0.3048,-0.7112 0,-0.54187 0.3048,-0.67733 0.33867,-0.16934 1.38853,-0.16934 1.04987,0 1.35467,0.16934 0.33867,0.13546 0.33867,0.67733 0,0.54187 -0.33867,0.7112 -0.3048,0.13547 -1.35467,0.13547 -1.04986,0 -1.38853,-0.13547 z m 0,-3.38667 q -0.3048,-0.16933 -0.3048,-0.7112 0,-0.54186 0.3048,-0.67733 0.33867,-0.16933 1.38853,-0.16933 1.04987,0 1.35467,0.16933 0.33867,0.13547 0.33867,0.67733 0,0.54187 -0.33867,0.7112 -0.3048,0.13547 -1.35467,0.13547 -1.04986,0 -1.38853,-0.13547 z m 0,-3.38666 q -0.3048,-0.16934 -0.3048,-0.7112 0,-0.54187 0.3048,-0.67734 0.33867,-0.16933 1.38853,-0.16933 1.04987,0 1.35467,0.16933 0.33867,0.13547 0.33867,0.67734 0,0.54186 -0.33867,0.7112 -0.3048,0.13546 -1.35467,0.13546 -1.04986,0 -1.38853,-0.13546 z m -1.55787,-3.38667 q -0.44026,-0.13547 -0.44026,-0.7112 0,-0.57573 0.44026,-0.7112 0.44027,-0.13547 2.09974,-0.13547 1.65946,0 2.09973,0.13547 0.44027,0.13547 0.44027,0.7112 0,0.57573 -0.44027,0.7112 -0.44027,0.13547 -2.09973,0.13547 -1.65947,0 -2.09974,-0.13547 z m 1.55787,-6.77333 q -0.3048,-0.16933 -0.3048,-0.7112 0,-0.54187 0.3048,-0.67733 0.33867,-0.16934 1.38853,-0.16934 1.04987,0 1.35467,0.16934 0.33867,0.13546 0.33867,0.67733 0,0.54187 -0.33867,0.7112 -0.3048,0.13547 -1.35467,0.13547 -1.04986,0 -1.38853,-0.13547 z"
           id="path6989"
           style="stroke-width:0.33077168;stroke-miterlimit:4;stroke-dasharray:0.8820578, 0.88205780000000000;stroke-dashoffset:0" />
        <path
           d="m -99.258595,133.77884 q -0.3048,-0.16934 -0.3048,-0.7112 0,-0.54187 0.3048,-0.67734 0.338667,-0.16933 1.388533,-0.16933 1.049867,0 1.354667,0.16933 0.338667,0.13547 0.338667,0.67734 0,0.54186 -0.338667,0.7112 -0.3048,0.13546 -1.354667,0.13546 -1.049866,0 -1.388533,-0.13546 z m -10.159995,0 q -0.3048,-0.16934 -0.3048,-0.7112 0,-0.54187 0.3048,-0.67734 0.33866,-0.16933 1.38853,-0.16933 1.04987,0 1.35467,0.16933 0.33866,0.13547 0.33866,0.67734 0,0.54186 -0.33866,0.7112 -0.3048,0.13546 -1.35467,0.13546 -1.04987,0 -1.38853,-0.13546 z m 10.159995,-3.38667 q -0.3048,-0.16933 -0.3048,-0.7112 0,-0.54187 0.3048,-0.67733 0.338667,-0.16934 1.388533,-0.16934 1.049867,0 1.354667,0.16934 0.338667,0.13546 0.338667,0.67733 0,0.54187 -0.338667,0.7112 -0.3048,0.13547 -1.354667,0.13547 -1.049866,0 -1.388533,-0.13547 z m -10.159995,0 q -0.3048,-0.16933 -0.3048,-0.7112 0,-0.54187 0.3048,-0.67733 0.33866,-0.16934 1.38853,-0.16934 1.04987,0 1.35467,0.16934 0.33866,0.13546 0.33866,0.67733 0,0.54187 -0.33866,0.7112 -0.3048,0.13547 -1.35467,0.13547 -1.04987,0 -1.38853,-0.13547 z m 10.159995,-3.38667 q -0.3048,-0.16933 -0.3048,-0.7112 0,-0.54186 0.3048,-0.67733 0.338667,-0.16933 1.388533,-0.16933 1.049867,0 1.354667,0.16933 0.338667,0.13547 0.338667,0.67733 0,0.54187 -0.338667,0.7112 -0.3048,0.13547 -1.354667,0.13547 -1.049866,0 -1.388533,-0.13547 z m -10.159995,0 q -0.3048,-0.16933 -0.3048,-0.7112 0,-0.54186 0.3048,-0.67733 0.33866,-0.16933 1.38853,-0.16933 1.04987,0 1.35467,0.16933 0.33866,0.13547 0.33866,0.67733 0,0.54187 -0.33866,0.7112 -0.3048,0.13547 -1.35467,0.13547 -1.04987,0 -1.38853,-0.13547 z m 10.159995,-3.38666 q -0.3048,-0.16934 -0.3048,-0.7112 0,-0.54187 0.3048,-0.67734 0.338667,-0.16933 1.388533,-0.16933 1.049867,0 1.354667,0.16933 0.338667,0.13547 0.338667,0.67734 0,0.54186 -0.338667,0.7112 -0.3048,0.13546 -1.354667,0.13546 -1.049866,0 -1.388533,-0.13546 z m -10.024535,0 q -0.44026,-0.13547 -0.44026,-0.7112 0,-0.57574 0.44026,-0.7112 0.44027,-0.13547 2.09974,-0.13547 1.65946,0 2.09973,0.13547 0.44027,0.13546 0.44027,0.7112 0,0.57573 -0.44027,0.7112 -0.44027,0.13546 -2.09973,0.13546 -1.65947,0 -2.09974,-0.13546 z m -0.44026,-4.09787 q 0,-0.508 0.508,-0.64347 0.74506,-0.2032 5.41866,-0.2032 5.113868,0 5.655735,0.3048 0.270933,0.13547 0.270933,0.54187 0,0.508 -0.508,0.64347 -0.745066,0.2032 -5.418668,0.2032 -5.11386,0 -5.65573,-0.3048 -0.27093,-0.13547 -0.27093,-0.54187 z"
           id="path6991"
           style="stroke-width:0.33077168;stroke-miterlimit:4;stroke-dasharray:0.8820578, 0.88205780000000000;stroke-dashoffset:0" />
        <path
           d="m -91.096734,139.84097 q 0,-0.54187 0.508,-0.67733 0.643466,-0.16934 4.571999,-0.16934 4.3688,0 4.842933,0.3048 0.237067,0.13547 0.237067,0.54187 0,0.54187 -0.508,0.67733 -0.643467,0.16934 -4.572,0.16934 -4.368799,0 -4.842933,-0.3048 -0.237066,-0.13547 -0.237066,-0.54187 z m 8.771466,-2.70933 q -0.3048,-0.13547 -0.3048,-0.67734 0,-0.54186 0.3048,-0.7112 0.338666,-0.13546 1.388533,-0.13546 1.049867,0 1.354667,0.13546 0.338666,0.16934 0.338666,0.7112 0,0.54187 -0.338666,0.67734 -0.3048,0.16933 -1.354667,0.16933 -1.049867,0 -1.388533,-0.16933 z m -10.16,0 q -0.3048,-0.13547 -0.3048,-0.67734 0,-0.54186 0.3048,-0.7112 0.338667,-0.13546 1.388534,-0.13546 1.049866,0 1.354666,0.13546 0.338667,0.16934 0.338667,0.7112 0,0.54187 -0.338667,0.67734 -0.3048,0.16933 -1.354666,0.16933 -1.049867,0 -1.388534,-0.16933 z m 1.388534,-4.064 q 0,-0.54187 0.508,-0.67734 0.643466,-0.16933 4.571999,-0.16933 4.3688,0 4.842933,0.3048 0.237067,0.13547 0.237067,0.54187 0,0.54186 -0.508,0.67733 -0.643467,0.16933 -4.572,0.16933 -4.368799,0 -4.842933,-0.3048 -0.237066,-0.13546 -0.237066,-0.54186 z m -1.388534,-2.67547 q -0.3048,-0.16933 -0.3048,-0.7112 0,-0.54187 0.3048,-0.67733 0.338667,-0.16934 1.388534,-0.16934 1.049866,0 1.354666,0.16934 0.338667,0.13546 0.338667,0.67733 0,0.54187 -0.338667,0.7112 -0.3048,0.13547 -1.354666,0.13547 -1.049867,0 -1.388534,-0.13547 z m 1.456267,-3.62373 q -0.06773,-0.16934 -0.06773,-0.47414 0,-0.3048 0.06773,-0.44026 0.1016,-0.16934 0.575733,-0.27094 0.508,-0.1016 1.253067,-0.1016 0.745066,-0.0339 2.3368,-0.0339 1.591733,0 2.3368,0.0339 0.745066,0 1.219199,0.1016 0.508,0.1016 0.575734,0.27094 0.1016,0.13546 0.1016,0.44026 0,0.3048 -0.1016,0.47414 -0.06773,0.13546 -0.575734,0.23706 -0.474133,0.1016 -1.219199,0.13547 -0.745067,0 -2.3368,0 -1.591734,0 -2.3368,0 -0.745067,-0.0339 -1.253067,-0.13547 -0.474133,-0.1016 -0.575733,-0.23706 z m 7.0104,-3.1496 q -0.3048,-0.16934 -0.3048,-0.7112 0,-0.54187 0.3048,-0.67734 0.338666,-0.16933 1.388533,-0.16933 1.049866,0 1.354666,0.16933 0.338667,0.13547 0.338667,0.67734 0,0.54186 -0.338667,0.7112 -0.3048,0.13546 -1.354666,0.13546 -1.049867,0 -1.388533,-0.13546 z m -8.466667,0 q -0.3048,-0.16934 -0.3048,-0.7112 0,-0.54187 0.3048,-0.67734 0.338667,-0.16933 1.388534,-0.16933 1.049866,0 1.354666,0.16933 0.338667,0.13547 0.338667,0.67734 0,0.54186 -0.338667,0.7112 -0.3048,0.13546 -1.354666,0.13546 -1.049867,0 -1.388534,-0.13546 z m 1.388534,-4.09787 q 0,-0.508 0.508,-0.64347 0.745066,-0.2032 5.418666,-0.2032 5.113866,0 5.655733,0.3048 0.270933,0.13547 0.270933,0.54187 0,0.508 -0.508,0.64347 -0.745066,0.2032 -5.418666,0.2032 -5.113866,0 -5.655733,-0.3048 -0.270933,-0.13547 -0.270933,-0.54187 z"
           id="path6993"
           style="stroke-width:0.33077168;stroke-miterlimit:4;stroke-dasharray:0.8820578, 0.88205780000000000;stroke-dashoffset:0" />
        <path
           d="m -57.230066,133.06764 q 0,-0.54187 0.508,-0.67734 0.643467,-0.16933 4.572,-0.16933 4.3688,0 4.842933,0.3048 0.237067,0.13547 0.237067,0.54187 0,0.54186 -0.508,0.67733 -0.643467,0.16933 -4.572,0.16933 -4.3688,0 -4.842933,-0.3048 -0.237067,-0.13546 -0.237067,-0.54186 z m 3.691467,-2.67547 q -0.3048,-0.16933 -0.3048,-0.7112 0,-0.54187 0.3048,-0.67733 0.338666,-0.16934 1.388533,-0.16934 1.049867,0 1.354667,0.16934 0.338666,0.13546 0.338666,0.67733 0,0.54187 -0.338666,0.7112 -0.3048,0.13547 -1.354667,0.13547 -1.049867,0 -1.388533,-0.13547 z m 0,-3.38667 q -0.3048,-0.16933 -0.3048,-0.7112 0,-0.54186 0.3048,-0.67733 0.338666,-0.16933 1.388533,-0.16933 1.049867,0 1.354667,0.16933 0.338666,0.13547 0.338666,0.67733 0,0.54187 -0.338666,0.7112 -0.3048,0.13547 -1.354667,0.13547 -1.049867,0 -1.388533,-0.13547 z m 0,-3.38666 q -0.3048,-0.16934 -0.3048,-0.7112 0,-0.54187 0.3048,-0.67734 0.338666,-0.16933 1.388533,-0.16933 1.049867,0 1.354667,0.16933 0.338666,0.13547 0.338666,0.67734 0,0.54186 -0.338666,0.7112 -0.3048,0.13546 -1.354667,0.13546 -1.049867,0 -1.388533,-0.13546 z m -1.557867,-3.38667 q -0.440266,-0.13547 -0.440266,-0.7112 0,-0.57573 0.440266,-0.7112 0.440267,-0.13547 2.099733,-0.13547 1.659467,0 2.099734,0.13547 0.440266,0.13547 0.440266,0.7112 0,0.57573 -0.440266,0.7112 -0.440267,0.13547 -2.099734,0.13547 -1.659466,0 -2.099733,-0.13547 z m 1.557867,-6.77333 q -0.3048,-0.16933 -0.3048,-0.7112 0,-0.54187 0.3048,-0.67733 0.338666,-0.16934 1.388533,-0.16934 1.049867,0 1.354667,0.16934 0.338666,0.13546 0.338666,0.67733 0,0.54187 -0.338666,0.7112 -0.3048,0.13547 -1.354667,0.13547 -1.049867,0 -1.388533,-0.13547 z"
           id="path6995"
           style="stroke-width:0.33077168;stroke-miterlimit:4;stroke-dasharray:0.8820578, 0.88205780000000000;stroke-dashoffset:0" />
        <path
           d="m -36.469798,133.77884 q -0.440267,-0.13547 -0.440267,-0.7112 0,-0.57574 0.440267,-0.7112 0.440266,-0.13547 2.099733,-0.13547 1.659467,0 2.099733,0.13547 0.440267,0.13546 0.440267,0.7112 0,0.57573 -0.440267,0.7112 -0.440266,0.13546 -2.099733,0.13546 -1.659467,0 -2.099733,-0.13546 z m 3.2512,-3.38667 q -0.3048,-0.16933 -0.3048,-0.7112 0,-0.54187 0.3048,-0.67733 0.338666,-0.16934 1.388533,-0.16934 1.049866,0 1.354666,0.16934 0.338667,0.13546 0.338667,0.67733 0,0.54187 -0.338667,0.7112 -0.3048,0.13547 -1.354666,0.13547 -1.049867,0 -1.388533,-0.13547 z m -5.08,0 q -0.3048,-0.16933 -0.3048,-0.7112 0,-0.54187 0.3048,-0.67733 0.338667,-0.16934 1.388533,-0.16934 1.049867,0 1.354667,0.16934 0.338666,0.13546 0.338666,0.67733 0,0.54187 -0.338666,0.7112 -0.3048,0.13547 -1.354667,0.13547 -1.049866,0 -1.388533,-0.13547 z m 0,-3.38667 q -0.3048,-0.16933 -0.3048,-0.7112 0,-0.54186 0.3048,-0.67733 0.338667,-0.16933 1.388533,-0.16933 1.049867,0 1.354667,0.16933 0.338666,0.13547 0.338666,0.67733 0,0.54187 -0.338666,0.7112 -0.3048,0.13547 -1.354667,0.13547 -1.049866,0 -1.388533,-0.13547 z m 0,-3.38666 q -0.3048,-0.16934 -0.3048,-0.7112 0,-0.54187 0.3048,-0.67734 0.338667,-0.16933 1.388533,-0.16933 1.049867,0 1.354667,0.16933 0.338666,0.13547 0.338666,0.67734 0,0.54186 -0.338666,0.7112 -0.3048,0.13546 -1.354667,0.13546 -1.049866,0 -1.388533,-0.13546 z m -3.691467,-4.09787 q 0,-0.54187 0.508,-0.67733 0.643467,-0.16934 4.572,-0.16934 4.3688,0 4.842933,0.3048 0.237067,0.13547 0.237067,0.54187 0,0.54187 -0.508,0.67733 -0.643467,0.16934 -4.572,0.16934 -4.3688,0 -4.842933,-0.3048 -0.237067,-0.13547 -0.237067,-0.54187 z m 3.691467,-2.67546 q -0.3048,-0.16934 -0.3048,-0.7112 0,-0.54187 0.3048,-0.67734 0.338667,-0.16933 1.388533,-0.16933 1.049867,0 1.354667,0.16933 0.338666,0.13547 0.338666,0.67734 0,0.54186 -0.338666,0.7112 -0.3048,0.13546 -1.354667,0.13546 -1.049866,0 -1.388533,-0.13546 z m 0,-3.38667 q -0.3048,-0.16933 -0.3048,-0.7112 0,-0.54187 0.3048,-0.67733 0.338667,-0.16934 1.388533,-0.16934 1.049867,0 1.354667,0.16934 0.338666,0.13546 0.338666,0.67733 0,0.54187 -0.338666,0.7112 -0.3048,0.13547 -1.354667,0.13547 -1.049866,0 -1.388533,-0.13547 z"
           id="path6997"
           style="stroke-width:0.33077168;stroke-miterlimit:4;stroke-dasharray:0.8820578, 0.88205780000000000;stroke-dashoffset:0" />
        <path
           d="m -167.29673,163.54764 q 0,-0.54187 0.508,-0.67734 0.64347,-0.16933 4.572,-0.16933 4.3688,0 4.84294,0.3048 0.23706,0.13547 0.23706,0.54187 0,0.54186 -0.508,0.67733 -0.64346,0.16933 -4.572,0.16933 -4.3688,0 -4.84293,-0.3048 -0.23707,-0.13546 -0.23707,-0.54186 z m 8.77147,-2.67547 q -0.3048,-0.16933 -0.3048,-0.7112 0,-0.54187 0.3048,-0.67733 0.33867,-0.16934 1.38853,-0.16934 1.04987,0 1.35467,0.16934 0.33867,0.13546 0.33867,0.67733 0,0.54187 -0.33867,0.7112 -0.3048,0.13547 -1.35467,0.13547 -1.04986,0 -1.38853,-0.13547 z m -10.16,0 q -0.3048,-0.16933 -0.3048,-0.7112 0,-0.54187 0.3048,-0.67733 0.33867,-0.16934 1.38853,-0.16934 1.04987,0 1.35467,0.16934 0.33867,0.13546 0.33867,0.67733 0,0.54187 -0.33867,0.7112 -0.3048,0.13547 -1.35467,0.13547 -1.04986,0 -1.38853,-0.13547 z m 10.16,-3.38667 q -0.3048,-0.16933 -0.3048,-0.7112 0,-0.54186 0.3048,-0.67733 0.33867,-0.16933 1.38853,-0.16933 1.04987,0 1.35467,0.16933 0.33867,0.13547 0.33867,0.67733 0,0.54187 -0.33867,0.7112 -0.3048,0.13547 -1.35467,0.13547 -1.04986,0 -1.38853,-0.13547 z m -10.16,0 q -0.3048,-0.16933 -0.3048,-0.7112 0,-0.54186 0.3048,-0.67733 0.33867,-0.16933 1.38853,-0.16933 1.04987,0 1.35467,0.16933 0.33867,0.13547 0.33867,0.67733 0,0.54187 -0.33867,0.7112 -0.3048,0.13547 -1.35467,0.13547 -1.04986,0 -1.38853,-0.13547 z m 10.16,-3.38666 q -0.3048,-0.16934 -0.3048,-0.7112 0,-0.54187 0.3048,-0.67734 0.33867,-0.16933 1.38853,-0.16933 1.04987,0 1.35467,0.16933 0.33867,0.13547 0.33867,0.67734 0,0.54186 -0.33867,0.7112 -0.3048,0.13546 -1.35467,0.13546 -1.04986,0 -1.38853,-0.13546 z m -10.16,0 q -0.3048,-0.16934 -0.3048,-0.7112 0,-0.54187 0.3048,-0.67734 0.33867,-0.16933 1.38853,-0.16933 1.04987,0 1.35467,0.16933 0.33867,0.13547 0.33867,0.67734 0,0.54186 -0.33867,0.7112 -0.3048,0.13546 -1.35467,0.13546 -1.04986,0 -1.38853,-0.13546 z m 1.38853,-4.09787 q 0,-0.54187 0.508,-0.67733 0.64347,-0.16934 4.572,-0.16934 4.3688,0 4.84294,0.3048 0.23706,0.13547 0.23706,0.54187 0,0.54187 -0.508,0.67733 -0.64346,0.16934 -4.572,0.16934 -4.3688,0 -4.84293,-0.3048 -0.23707,-0.13547 -0.23707,-0.54187 z"
           id="path6999"
           style="stroke-width:0.33077168;stroke-miterlimit:4;stroke-dasharray:0.8820578, 0.88205780000000000;stroke-dashoffset:0" />
        <path
           d="m -148.36526,164.25884 q -0.3048,-0.16934 -0.3048,-0.7112 0,-0.54187 0.3048,-0.67734 0.33867,-0.16933 1.38853,-0.16933 1.04987,0 1.35467,0.16933 0.33867,0.13547 0.33867,0.67734 0,0.54186 -0.33867,0.7112 -0.3048,0.13546 -1.35467,0.13546 -1.04986,0 -1.38853,-0.13546 z m 0,-3.38667 q -0.3048,-0.16933 -0.3048,-0.7112 0,-0.54187 0.3048,-0.67733 0.33867,-0.16934 1.38853,-0.16934 1.04987,0 1.35467,0.16934 0.33867,0.13546 0.33867,0.67733 0,0.54187 -0.33867,0.7112 -0.3048,0.13547 -1.35467,0.13547 -1.04986,0 -1.38853,-0.13547 z m 0,-3.38667 q -0.3048,-0.16933 -0.3048,-0.7112 0,-0.54186 0.3048,-0.67733 0.33867,-0.16933 1.38853,-0.16933 1.04987,0 1.35467,0.16933 0.33867,0.13547 0.33867,0.67733 0,0.54187 -0.33867,0.7112 -0.3048,0.13547 -1.35467,0.13547 -1.04986,0 -1.38853,-0.13547 z m -3.69147,-4.09786 q 0,-0.54187 0.508,-0.67734 0.64347,-0.16933 4.572,-0.16933 4.3688,0 4.84294,0.3048 0.23706,0.13547 0.23706,0.54187 0,0.54186 -0.508,0.67733 -0.64346,0.16933 -4.572,0.16933 -4.3688,0 -4.84293,-0.3048 -0.23707,-0.13546 -0.23707,-0.54186 z m 3.69147,-2.67547 q -0.3048,-0.16933 -0.3048,-0.7112 0,-0.54187 0.3048,-0.67733 0.33867,-0.16934 1.38853,-0.16934 1.04987,0 1.35467,0.16934 0.33867,0.13546 0.33867,0.67733 0,0.54187 -0.33867,0.7112 -0.3048,0.13547 -1.35467,0.13547 -1.04986,0 -1.38853,-0.13547 z m 6.77333,-3.38667 q -0.3048,-0.16933 -0.3048,-0.7112 0,-0.54186 0.3048,-0.67733 0.33867,-0.16933 1.38854,-0.16933 1.04986,0 1.35466,0.16933 0.33867,0.13547 0.33867,0.67733 0,0.54187 -0.33867,0.7112 -0.3048,0.13547 -1.35466,0.13547 -1.04987,0 -1.38854,-0.13547 z m -6.77333,0 q -0.3048,-0.16933 -0.3048,-0.7112 0,-0.54186 0.3048,-0.67733 0.33867,-0.16933 1.38853,-0.16933 1.04987,0 1.35467,0.16933 0.33867,0.13547 0.33867,0.67733 0,0.54187 -0.33867,0.7112 -0.3048,0.13547 -1.35467,0.13547 -1.04986,0 -1.38853,-0.13547 z m 1.9304,-3.38666 q -0.54187,-0.13547 -0.54187,-0.7112 0,-0.57574 0.54187,-0.7112 0.54187,-0.13547 2.8448,-0.13547 2.30293,0 2.8448,0.13547 0.54187,0.13546 0.54187,0.7112 0,0.57573 -0.54187,0.7112 -0.54187,0.13546 -2.8448,0.13546 -2.30293,0 -2.8448,-0.13546 z"
           id="path7001"
           style="stroke-width:0.33077168;stroke-miterlimit:4;stroke-dasharray:0.8820578, 0.88205780000000000;stroke-dashoffset:0" />
        <path
           d="m -131.43193,164.25884 q -0.3048,-0.16934 -0.3048,-0.7112 0,-0.54187 0.3048,-0.67734 0.33867,-0.16933 1.38853,-0.16933 1.04987,0 1.35467,0.16933 0.33867,0.13547 0.33867,0.67734 0,0.54186 -0.33867,0.7112 -0.3048,0.13546 -1.35467,0.13546 -1.04986,0 -1.38853,-0.13546 z m 0,-3.38667 q -0.3048,-0.16933 -0.3048,-0.7112 0,-0.54187 0.3048,-0.67733 0.33867,-0.16934 1.38853,-0.16934 1.04987,0 1.35467,0.16934 0.33867,0.13546 0.33867,0.67733 0,0.54187 -0.33867,0.7112 -0.3048,0.13547 -1.35467,0.13547 -1.04986,0 -1.38853,-0.13547 z m 0,-3.38667 q -0.3048,-0.16933 -0.3048,-0.7112 0,-0.54186 0.3048,-0.67733 0.33867,-0.16933 1.38853,-0.16933 1.04987,0 1.35467,0.16933 0.33867,0.13547 0.33867,0.67733 0,0.54187 -0.33867,0.7112 -0.3048,0.13547 -1.35467,0.13547 -1.04986,0 -1.38853,-0.13547 z m -3.69146,-4.09786 q 0,-0.54187 0.508,-0.67734 0.64346,-0.16933 4.57199,-0.16933 4.3688,0 4.84294,0.3048 0.23706,0.13547 0.23706,0.54187 0,0.54186 -0.508,0.67733 -0.64346,0.16933 -4.572,0.16933 -4.3688,0 -4.84293,-0.3048 -0.23706,-0.13546 -0.23706,-0.54186 z m 3.69146,-2.67547 q -0.3048,-0.16933 -0.3048,-0.7112 0,-0.54187 0.3048,-0.67733 0.33867,-0.16934 1.38853,-0.16934 1.04987,0 1.35467,0.16934 0.33867,0.13546 0.33867,0.67733 0,0.54187 -0.33867,0.7112 -0.3048,0.13547 -1.35467,0.13547 -1.04986,0 -1.38853,-0.13547 z m 6.77333,-3.38667 q -0.3048,-0.16933 -0.3048,-0.7112 0,-0.54186 0.3048,-0.67733 0.33867,-0.16933 1.38854,-0.16933 1.04986,0 1.35466,0.16933 0.33867,0.13547 0.33867,0.67733 0,0.54187 -0.33867,0.7112 -0.3048,0.13547 -1.35466,0.13547 -1.04987,0 -1.38854,-0.13547 z m -6.77333,0 q -0.3048,-0.16933 -0.3048,-0.7112 0,-0.54186 0.3048,-0.67733 0.33867,-0.16933 1.38853,-0.16933 1.04987,0 1.35467,0.16933 0.33867,0.13547 0.33867,0.67733 0,0.54187 -0.33867,0.7112 -0.3048,0.13547 -1.35467,0.13547 -1.04986,0 -1.38853,-0.13547 z m 1.9304,-3.38666 q -0.54187,-0.13547 -0.54187,-0.7112 0,-0.57574 0.54187,-0.7112 0.54187,-0.13547 2.8448,-0.13547 2.30293,0 2.8448,0.13547 0.54187,0.13546 0.54187,0.7112 0,0.57573 -0.54187,0.7112 -0.54187,0.13546 -2.8448,0.13546 -2.30293,0 -2.8448,-0.13546 z"
           id="path7003"
           style="stroke-width:0.33077168;stroke-miterlimit:4;stroke-dasharray:0.8820578, 0.88205780000000000;stroke-dashoffset:0" />
        <path
           d="m -99.563397,163.54764 q 0,-0.508 0.508,-0.64347 0.745067,-0.2032 5.418667,-0.2032 5.113866,0 5.655733,0.3048 0.270933,0.13547 0.270933,0.54187 0,0.508 -0.508,0.64346 -0.745067,0.2032 -5.418666,0.2032 -5.113867,0 -5.655734,-0.3048 -0.270933,-0.13546 -0.270933,-0.54186 z m 7.2136,-2.67547 q -0.440267,-0.13547 -0.440267,-0.7112 0,-0.57573 0.440267,-0.7112 0.440266,-0.13547 2.099733,-0.13547 1.693333,0 2.099733,0.13547 0.440267,0.13547 0.440267,0.7112 0,0.57573 -0.440267,0.7112 -0.4064,0.13547 -2.099733,0.13547 -1.659467,0 -2.099733,-0.13547 z m -8.602133,0 q -0.3048,-0.16933 -0.3048,-0.7112 0,-0.54187 0.3048,-0.67733 0.33867,-0.16934 1.388533,-0.16934 1.049867,0 1.354667,0.16934 0.338666,0.13546 0.338666,0.67733 0,0.54187 -0.338666,0.7112 -0.3048,0.13547 -1.354667,0.13547 -1.049863,0 -1.388533,-0.13547 z m 1.388533,-4.09787 q 0,-0.508 0.508,-0.64346 0.745067,-0.2032 5.418667,-0.2032 5.113866,0 5.655733,0.3048 0.270933,0.13546 0.270933,0.54186 0,0.508 -0.508,0.64347 -0.745067,0.2032 -5.418666,0.2032 -5.113867,0 -5.655734,-0.3048 -0.270933,-0.13547 -0.270933,-0.54187 z m 8.771466,-2.67546 q -0.3048,-0.16934 -0.3048,-0.7112 0,-0.54187 0.3048,-0.67734 0.338667,-0.16933 1.388534,-0.16933 1.049866,0 1.354666,0.16933 0.338667,0.13547 0.338667,0.67734 0,0.54186 -0.338667,0.7112 -0.3048,0.13546 -1.354666,0.13546 -1.049867,0 -1.388534,-0.13546 z m -8.771466,-4.09787 q 0,-0.54187 0.508,-0.67733 0.643467,-0.16934 4.572,-0.16934 4.3688,0 4.842933,0.3048 0.237067,0.13547 0.237067,0.54187 0,0.54187 -0.508,0.67733 -0.643467,0.16934 -4.572,0.16934 -4.3688,0 -4.842933,-0.3048 -0.237067,-0.13547 -0.237067,-0.54187 z"
           id="path7005"
           style="stroke-width:0.33077168;stroke-miterlimit:4;stroke-dasharray:0.8820578, 0.88205780000000000;stroke-dashoffset:0" />
        <path
           d="m -73.858596,164.25884 q -0.3048,-0.16934 -0.3048,-0.7112 0,-0.54187 0.3048,-0.67734 0.338666,-0.16933 1.388533,-0.16933 1.049867,0 1.354667,0.16933 0.338666,0.13547 0.338666,0.67734 0,0.54186 -0.338666,0.7112 -0.3048,0.13546 -1.354667,0.13546 -1.049867,0 -1.388533,-0.13546 z m -10.16,0 q -0.3048,-0.16934 -0.3048,-0.7112 0,-0.54187 0.3048,-0.67734 0.338667,-0.16933 1.388534,-0.16933 1.049866,0 1.354666,0.16933 0.338667,0.13547 0.338667,0.67734 0,0.54186 -0.338667,0.7112 -0.3048,0.13546 -1.354666,0.13546 -1.049867,0 -1.388534,-0.13546 z m 10.16,-3.38667 q -0.3048,-0.16933 -0.3048,-0.7112 0,-0.54187 0.3048,-0.67733 0.338666,-0.16934 1.388533,-0.16934 1.049867,0 1.354667,0.16934 0.338666,0.13546 0.338666,0.67733 0,0.54187 -0.338666,0.7112 -0.3048,0.13547 -1.354667,0.13547 -1.049867,0 -1.388533,-0.13547 z m -10.16,0 q -0.3048,-0.16933 -0.3048,-0.7112 0,-0.54187 0.3048,-0.67733 0.338667,-0.16934 1.388534,-0.16934 1.049866,0 1.354666,0.16934 0.338667,0.13546 0.338667,0.67733 0,0.54187 -0.338667,0.7112 -0.3048,0.13547 -1.354666,0.13547 -1.049867,0 -1.388534,-0.13547 z m 10.16,-3.38667 q -0.3048,-0.16933 -0.3048,-0.7112 0,-0.54186 0.3048,-0.67733 0.338666,-0.16933 1.388533,-0.16933 1.049867,0 1.354667,0.16933 0.338666,0.13547 0.338666,0.67733 0,0.54187 -0.338666,0.7112 -0.3048,0.13547 -1.354667,0.13547 -1.049867,0 -1.388533,-0.13547 z m -10.16,0 q -0.3048,-0.16933 -0.3048,-0.7112 0,-0.54186 0.3048,-0.67733 0.338667,-0.16933 1.388534,-0.16933 1.049866,0 1.354666,0.16933 0.338667,0.13547 0.338667,0.67733 0,0.54187 -0.338667,0.7112 -0.3048,0.13547 -1.354666,0.13547 -1.049867,0 -1.388534,-0.13547 z m 10.16,-3.38666 q -0.3048,-0.16934 -0.3048,-0.7112 0,-0.54187 0.3048,-0.67734 0.338666,-0.16933 1.388533,-0.16933 1.049867,0 1.354667,0.16933 0.338666,0.13547 0.338666,0.67734 0,0.54186 -0.338666,0.7112 -0.3048,0.13546 -1.354667,0.13546 -1.049867,0 -1.388533,-0.13546 z m -10.024533,0 q -0.440267,-0.13547 -0.440267,-0.7112 0,-0.57574 0.440267,-0.7112 0.440267,-0.13547 2.099733,-0.13547 1.659467,0 2.099733,0.13547 0.440267,0.13546 0.440267,0.7112 0,0.57573 -0.440267,0.7112 -0.440266,0.13546 -2.099733,0.13546 -1.659466,0 -2.099733,-0.13546 z m -0.440267,-4.09787 q 0,-0.508 0.508,-0.64347 0.745067,-0.2032 5.418667,-0.2032 5.113866,0 5.655733,0.3048 0.270933,0.13547 0.270933,0.54187 0,0.508 -0.508,0.64347 -0.745067,0.2032 -5.418666,0.2032 -5.113867,0 -5.655733,-0.3048 -0.270934,-0.13547 -0.270934,-0.54187 z"
           id="path7007"
           style="stroke-width:0.33077168;stroke-miterlimit:4;stroke-dasharray:0.8820578, 0.88205780000000000;stroke-dashoffset:0" />
        <path
           d="m -65.696736,163.54764 q 0,-0.508 0.508,-0.64347 0.745067,-0.2032 5.418667,-0.2032 5.113866,0 5.655733,0.3048 0.270933,0.13547 0.270933,0.54187 0,0.508 -0.508,0.64346 -0.745067,0.2032 -5.418666,0.2032 -5.113867,0 -5.655733,-0.3048 -0.270934,-0.13546 -0.270934,-0.54186 z m 7.2136,-2.67547 q -0.440267,-0.13547 -0.440267,-0.7112 0,-0.57573 0.440267,-0.7112 0.440267,-0.13547 2.099733,-0.13547 1.693333,0 2.099733,0.13547 0.440267,0.13547 0.440267,0.7112 0,0.57573 -0.440267,0.7112 -0.4064,0.13547 -2.099733,0.13547 -1.659466,0 -2.099733,-0.13547 z m -8.602133,0 q -0.3048,-0.16933 -0.3048,-0.7112 0,-0.54187 0.3048,-0.67733 0.338667,-0.16934 1.388533,-0.16934 1.049867,0 1.354667,0.16934 0.338666,0.13546 0.338666,0.67733 0,0.54187 -0.338666,0.7112 -0.3048,0.13547 -1.354667,0.13547 -1.049866,0 -1.388533,-0.13547 z m 10.159999,-3.38667 q -0.3048,-0.16933 -0.3048,-0.7112 0,-0.54186 0.3048,-0.67733 0.338667,-0.16933 1.388534,-0.16933 1.049866,0 1.354666,0.16933 0.338667,0.13547 0.338667,0.67733 0,0.54187 -0.338667,0.7112 -0.3048,0.13547 -1.354666,0.13547 -1.049867,0 -1.388534,-0.13547 z m -10.159999,0 q -0.3048,-0.16933 -0.3048,-0.7112 0,-0.54186 0.3048,-0.67733 0.338667,-0.16933 1.388533,-0.16933 1.049867,0 1.354667,0.16933 0.338666,0.13547 0.338666,0.67733 0,0.54187 -0.338666,0.7112 -0.3048,0.13547 -1.354667,0.13547 -1.049866,0 -1.388533,-0.13547 z m 8.602133,-3.38666 q -0.440267,-0.13547 -0.440267,-0.7112 0,-0.57574 0.440267,-0.7112 0.440267,-0.13547 2.099733,-0.13547 1.693333,0 2.099733,0.13547 0.440267,0.13546 0.440267,0.7112 0,0.57573 -0.440267,0.7112 -0.4064,0.13546 -2.099733,0.13546 -1.659466,0 -2.099733,-0.13546 z m -8.602133,0 q -0.3048,-0.16934 -0.3048,-0.7112 0,-0.54187 0.3048,-0.67734 0.338667,-0.16933 1.388533,-0.16933 1.049867,0 1.354667,0.16933 0.338666,0.13547 0.338666,0.67734 0,0.54186 -0.338666,0.7112 -0.3048,0.13546 -1.354667,0.13546 -1.049866,0 -1.388533,-0.13546 z m 1.388533,-4.09787 q 0,-0.508 0.508,-0.64347 0.745067,-0.2032 5.418667,-0.2032 5.113866,0 5.655733,0.3048 0.270933,0.13547 0.270933,0.54187 0,0.508 -0.508,0.64347 -0.745067,0.2032 -5.418666,0.2032 -5.113867,0 -5.655733,-0.3048 -0.270934,-0.13547 -0.270934,-0.54187 z m 8.771466,-2.67547 q -0.3048,-0.16933 -0.3048,-0.7112 0,-0.54186 0.3048,-0.67733 0.338667,-0.16933 1.388534,-0.16933 1.049866,0 1.354666,0.16933 0.338667,0.13547 0.338667,0.67733 0,0.54187 -0.338667,0.7112 -0.3048,0.13547 -1.354666,0.13547 -1.049867,0 -1.388534,-0.13547 z m 0,-3.38666 q -0.3048,-0.16934 -0.3048,-0.7112 0,-0.54187 0.3048,-0.67734 0.338667,-0.16933 1.388534,-0.16933 1.049866,0 1.354666,0.16933 0.338667,0.13547 0.338667,0.67734 0,0.54186 -0.338667,0.7112 -0.3048,0.13546 -1.354666,0.13546 -1.049867,0 -1.388534,-0.13546 z"
           id="path7009"
           style="stroke-width:0.33077168;stroke-miterlimit:4;stroke-dasharray:0.8820578, 0.88205780000000000;stroke-dashoffset:0" />
        <path
           d="m -184.23006,194.02763 q 0,-0.54186 0.508,-0.67733 0.64347,-0.16933 4.572,-0.16933 4.3688,0 4.84293,0.3048 0.23707,0.13546 0.23707,0.54186 0,0.54187 -0.508,0.67734 -0.64347,0.16933 -4.572,0.16933 -4.3688,0 -4.84293,-0.3048 -0.23707,-0.13547 -0.23707,-0.54187 z m 8.77147,-2.67546 q -0.3048,-0.16934 -0.3048,-0.7112 0,-0.54187 0.3048,-0.67734 0.33866,-0.16933 1.38853,-0.16933 1.04987,0 1.35467,0.16933 0.33866,0.13547 0.33866,0.67734 0,0.54186 -0.33866,0.7112 -0.3048,0.13546 -1.35467,0.13546 -1.04987,0 -1.38853,-0.13546 z m -10.16,0 q -0.3048,-0.16934 -0.3048,-0.7112 0,-0.54187 0.3048,-0.67734 0.33866,-0.16933 1.38853,-0.16933 1.04987,0 1.35467,0.16933 0.33866,0.13547 0.33866,0.67734 0,0.54186 -0.33866,0.7112 -0.3048,0.13546 -1.35467,0.13546 -1.04987,0 -1.38853,-0.13546 z m 10.16,-3.38667 q -0.3048,-0.16933 -0.3048,-0.7112 0,-0.54187 0.3048,-0.67733 0.33866,-0.16934 1.38853,-0.16934 1.04987,0 1.35467,0.16934 0.33866,0.13546 0.33866,0.67733 0,0.54187 -0.33866,0.7112 -0.3048,0.13547 -1.35467,0.13547 -1.04987,0 -1.38853,-0.13547 z m -10.16,0 q -0.3048,-0.16933 -0.3048,-0.7112 0,-0.54187 0.3048,-0.67733 0.33866,-0.16934 1.38853,-0.16934 1.04987,0 1.35467,0.16934 0.33866,0.13546 0.33866,0.67733 0,0.54187 -0.33866,0.7112 -0.3048,0.13547 -1.35467,0.13547 -1.04987,0 -1.38853,-0.13547 z m 10.16,-3.38667 q -0.3048,-0.16933 -0.3048,-0.7112 0,-0.54186 0.3048,-0.67733 0.33866,-0.16933 1.38853,-0.16933 1.04987,0 1.35467,0.16933 0.33866,0.13547 0.33866,0.67733 0,0.54187 -0.33866,0.7112 -0.3048,0.13547 -1.35467,0.13547 -1.04987,0 -1.38853,-0.13547 z m -10.16,0 q -0.3048,-0.16933 -0.3048,-0.7112 0,-0.54186 0.3048,-0.67733 0.33866,-0.16933 1.38853,-0.16933 1.04987,0 1.35467,0.16933 0.33866,0.13547 0.33866,0.67733 0,0.54187 -0.33866,0.7112 -0.3048,0.13547 -1.35467,0.13547 -1.04987,0 -1.38853,-0.13547 z m 1.38853,-4.09786 q 0,-0.54187 0.508,-0.67734 0.64347,-0.16933 4.572,-0.16933 4.3688,0 4.84293,0.3048 0.23707,0.13547 0.23707,0.54187 0,0.54186 -0.508,0.67733 -0.64347,0.16933 -4.572,0.16933 -4.3688,0 -4.84293,-0.3048 -0.23707,-0.13546 -0.23707,-0.54186 z"
           id="path7011"
           style="stroke-width:0.33077168;stroke-miterlimit:4;stroke-dasharray:0.8820578, 0.88205780000000000;stroke-dashoffset:0" />
        <path
           d="m -158.52526,194.73883 q -0.3048,-0.16933 -0.3048,-0.7112 0,-0.54186 0.3048,-0.67733 0.33867,-0.16933 1.38853,-0.16933 1.04987,0 1.35467,0.16933 0.33867,0.13547 0.33867,0.67733 0,0.54187 -0.33867,0.7112 -0.3048,0.13547 -1.35467,0.13547 -1.04986,0 -1.38853,-0.13547 z m -10.16,0 q -0.3048,-0.16933 -0.3048,-0.7112 0,-0.54186 0.3048,-0.67733 0.33867,-0.16933 1.38853,-0.16933 1.04987,0 1.35467,0.16933 0.33867,0.13547 0.33867,0.67733 0,0.54187 -0.33867,0.7112 -0.3048,0.13547 -1.35467,0.13547 -1.04986,0 -1.38853,-0.13547 z m 10.16,-3.38666 q -0.3048,-0.16934 -0.3048,-0.7112 0,-0.54187 0.3048,-0.67734 0.33867,-0.16933 1.38853,-0.16933 1.04987,0 1.35467,0.16933 0.33867,0.13547 0.33867,0.67734 0,0.54186 -0.33867,0.7112 -0.3048,0.13546 -1.35467,0.13546 -1.04986,0 -1.38853,-0.13546 z m -10.16,0 q -0.3048,-0.16934 -0.3048,-0.7112 0,-0.54187 0.3048,-0.67734 0.33867,-0.16933 1.38853,-0.16933 1.04987,0 1.35467,0.16933 0.33867,0.13547 0.33867,0.67734 0,0.54186 -0.33867,0.7112 -0.3048,0.13546 -1.35467,0.13546 -1.04986,0 -1.38853,-0.13546 z m 10.16,-3.38667 q -0.3048,-0.16933 -0.3048,-0.7112 0,-0.54187 0.3048,-0.67733 0.33867,-0.16934 1.38853,-0.16934 1.04987,0 1.35467,0.16934 0.33867,0.13546 0.33867,0.67733 0,0.54187 -0.33867,0.7112 -0.3048,0.13547 -1.35467,0.13547 -1.04986,0 -1.38853,-0.13547 z m -10.16,0 q -0.3048,-0.16933 -0.3048,-0.7112 0,-0.54187 0.3048,-0.67733 0.33867,-0.16934 1.38853,-0.16934 1.04987,0 1.35467,0.16934 0.33867,0.13546 0.33867,0.67733 0,0.54187 -0.33867,0.7112 -0.3048,0.13547 -1.35467,0.13547 -1.04986,0 -1.38853,-0.13547 z m 10.16,-3.38667 q -0.3048,-0.16933 -0.3048,-0.7112 0,-0.54186 0.3048,-0.67733 0.33867,-0.16933 1.38853,-0.16933 1.04987,0 1.35467,0.16933 0.33867,0.13547 0.33867,0.67733 0,0.54187 -0.33867,0.7112 -0.3048,0.13547 -1.35467,0.13547 -1.04986,0 -1.38853,-0.13547 z m -10.02453,0 q -0.44027,-0.13546 -0.44027,-0.7112 0,-0.57573 0.44027,-0.7112 0.44026,-0.13546 2.09973,-0.13546 1.65947,0 2.09973,0.13546 0.44027,0.13547 0.44027,0.7112 0,0.57574 -0.44027,0.7112 -0.44026,0.13547 -2.09973,0.13547 -1.65947,0 -2.09973,-0.13547 z m -0.44027,-4.09786 q 0,-0.508 0.508,-0.64347 0.74507,-0.2032 5.41867,-0.2032 5.11386,0 5.65573,0.3048 0.27093,0.13547 0.27093,0.54187 0,0.508 -0.508,0.64346 -0.74506,0.2032 -5.41866,0.2032 -5.11387,0 -5.65574,-0.3048 -0.27093,-0.13546 -0.27093,-0.54186 z"
           id="path7013"
           style="stroke-width:0.33077168;stroke-miterlimit:4;stroke-dasharray:0.8820578, 0.88205780000000000;stroke-dashoffset:0" />
        <path
           d="m -133.43006,194.02763 q 0,-0.508 0.508,-0.64346 0.74506,-0.2032 5.41866,-0.2032 5.11387,0 5.65574,0.3048 0.27093,0.13546 0.27093,0.54186 0,0.508 -0.508,0.64347 -0.74507,0.2032 -5.41867,0.2032 -5.11386,0 -5.65573,-0.3048 -0.27093,-0.13547 -0.27093,-0.54187 z m 7.2136,-2.67546 q -0.44027,-0.13547 -0.44027,-0.7112 0,-0.57574 0.44027,-0.7112 0.44026,-0.13547 2.09973,-0.13547 1.69333,0 2.09973,0.13547 0.44027,0.13546 0.44027,0.7112 0,0.57573 -0.44027,0.7112 -0.4064,0.13546 -2.09973,0.13546 -1.65947,0 -2.09973,-0.13546 z m -8.60214,0 q -0.3048,-0.16934 -0.3048,-0.7112 0,-0.54187 0.3048,-0.67734 0.33867,-0.16933 1.38854,-0.16933 1.04986,0 1.35466,0.16933 0.33867,0.13547 0.33867,0.67734 0,0.54186 -0.33867,0.7112 -0.3048,0.13546 -1.35466,0.13546 -1.04987,0 -1.38854,-0.13546 z m 1.38854,-4.09787 q 0,-0.508 0.508,-0.64347 0.74506,-0.2032 5.41866,-0.2032 5.11387,0 5.65574,0.3048 0.27093,0.13547 0.27093,0.54187 0,0.508 -0.508,0.64347 -0.74507,0.2032 -5.41867,0.2032 -5.11386,0 -5.65573,-0.3048 -0.27093,-0.13547 -0.27093,-0.54187 z m 8.77146,-2.67547 q -0.3048,-0.16933 -0.3048,-0.7112 0,-0.54186 0.3048,-0.67733 0.33867,-0.16933 1.38854,-0.16933 1.04986,0 1.35466,0.16933 0.33867,0.13547 0.33867,0.67733 0,0.54187 -0.33867,0.7112 -0.3048,0.13547 -1.35466,0.13547 -1.04987,0 -1.38854,-0.13547 z m -8.77146,-4.09786 q 0,-0.54187 0.508,-0.67734 0.64346,-0.16933 4.572,-0.16933 4.3688,0 4.84293,0.3048 0.23707,0.13547 0.23707,0.54187 0,0.54186 -0.508,0.67733 -0.64347,0.16933 -4.572,0.16933 -4.3688,0 -4.84294,-0.3048 -0.23706,-0.13546 -0.23706,-0.54186 z"
           id="path7015"
           style="stroke-width:0.33077168;stroke-miterlimit:4;stroke-dasharray:0.8820578, 0.88205780000000000;stroke-dashoffset:0" />
        <path
           d="m -116.49673,200.80097 q 0,-0.54187 0.508,-0.67734 0.64347,-0.16933 4.572,-0.16933 4.3688,0 4.84293,0.3048 0.23707,0.13547 0.23707,0.54187 0,0.54186 -0.508,0.67733 -0.64347,0.16933 -4.572,0.16933 -4.3688,0 -4.84293,-0.3048 -0.23707,-0.13546 -0.23707,-0.54186 z m 8.77147,-2.70934 q -0.3048,-0.13546 -0.3048,-0.67733 0,-0.54187 0.3048,-0.7112 0.33866,-0.13547 1.38853,-0.13547 1.04987,0 1.35467,0.13547 0.33866,0.16933 0.33866,0.7112 0,0.54187 -0.33866,0.67733 -0.3048,0.16934 -1.35467,0.16934 -1.04987,0 -1.38853,-0.16934 z m -10.16,0 q -0.3048,-0.13546 -0.3048,-0.67733 0,-0.54187 0.3048,-0.7112 0.33866,-0.13547 1.38853,-0.13547 1.04987,0 1.35467,0.13547 0.33866,0.16933 0.33866,0.7112 0,0.54187 -0.33866,0.67733 -0.3048,0.16934 -1.35467,0.16934 -1.04987,0 -1.38853,-0.16934 z m 1.38853,-4.064 q 0,-0.54186 0.508,-0.67733 0.64347,-0.16933 4.572,-0.16933 4.3688,0 4.84293,0.3048 0.23707,0.13546 0.23707,0.54186 0,0.54187 -0.508,0.67734 -0.64347,0.16933 -4.572,0.16933 -4.3688,0 -4.84293,-0.3048 -0.23707,-0.13547 -0.23707,-0.54187 z m -1.38853,-2.67546 q -0.3048,-0.16934 -0.3048,-0.7112 0,-0.54187 0.3048,-0.67734 0.33866,-0.16933 1.38853,-0.16933 1.04987,0 1.35467,0.16933 0.33866,0.13547 0.33866,0.67734 0,0.54186 -0.33866,0.7112 -0.3048,0.13546 -1.35467,0.13546 -1.04987,0 -1.38853,-0.13546 z m 1.45626,-3.62374 q -0.0677,-0.16933 -0.0677,-0.47413 0,-0.3048 0.0677,-0.44027 0.1016,-0.16933 0.57574,-0.27093 0.508,-0.1016 1.25306,-0.1016 0.74507,-0.0339 2.3368,-0.0339 1.59174,0 2.3368,0.0339 0.74507,0 1.2192,0.1016 0.508,0.1016 0.57574,0.27093 0.1016,0.13547 0.1016,0.44027 0,0.3048 -0.1016,0.47413 -0.0677,0.13547 -0.57574,0.23707 -0.47413,0.1016 -1.2192,0.13547 -0.74506,0 -2.3368,0 -1.59173,0 -2.3368,0 -0.74506,-0.0339 -1.25306,-0.13547 -0.47414,-0.1016 -0.57574,-0.23707 z m 7.0104,-3.1496 q -0.3048,-0.16933 -0.3048,-0.7112 0,-0.54186 0.3048,-0.67733 0.33867,-0.16933 1.38854,-0.16933 1.04986,0 1.35466,0.16933 0.33867,0.13547 0.33867,0.67733 0,0.54187 -0.33867,0.7112 -0.3048,0.13547 -1.35466,0.13547 -1.04987,0 -1.38854,-0.13547 z m -8.46666,0 q -0.3048,-0.16933 -0.3048,-0.7112 0,-0.54186 0.3048,-0.67733 0.33866,-0.16933 1.38853,-0.16933 1.04987,0 1.35467,0.16933 0.33866,0.13547 0.33866,0.67733 0,0.54187 -0.33866,0.7112 -0.3048,0.13547 -1.35467,0.13547 -1.04987,0 -1.38853,-0.13547 z m 1.38853,-4.09786 q 0,-0.508 0.508,-0.64347 0.74507,-0.2032 5.41867,-0.2032 5.11386,0 5.65573,0.3048 0.27093,0.13547 0.27093,0.54187 0,0.508 -0.508,0.64346 -0.74506,0.2032 -5.41866,0.2032 -5.11387,0 -5.65574,-0.3048 -0.27093,-0.13546 -0.27093,-0.54186 z"
           id="path7017"
           style="stroke-width:0.33077168;stroke-miterlimit:4;stroke-dasharray:0.8820578, 0.88205780000000000;stroke-dashoffset:0" />
        <path
           d="m -99.563395,194.02763 q 0,-0.508 0.508,-0.64346 0.745067,-0.2032 5.418666,-0.2032 5.113867,0 5.655733,0.3048 0.270934,0.13546 0.270934,0.54186 0,0.508 -0.508,0.64347 -0.745067,0.2032 -5.418667,0.2032 -5.113866,0 -5.655733,-0.3048 -0.270933,-0.13547 -0.270933,-0.54187 z m 7.2136,-2.67546 q -0.440267,-0.13547 -0.440267,-0.7112 0,-0.57574 0.440267,-0.7112 0.440266,-0.13547 2.099733,-0.13547 1.693333,0 2.099733,0.13547 0.440267,0.13546 0.440267,0.7112 0,0.57573 -0.440267,0.7112 -0.4064,0.13546 -2.099733,0.13546 -1.659467,0 -2.099733,-0.13546 z m -8.602135,0 q -0.3048,-0.16934 -0.3048,-0.7112 0,-0.54187 0.3048,-0.67734 0.33867,-0.16933 1.388535,-0.16933 1.049867,0 1.354667,0.16933 0.338666,0.13547 0.338666,0.67734 0,0.54186 -0.338666,0.7112 -0.3048,0.13546 -1.354667,0.13546 -1.049865,0 -1.388535,-0.13546 z m 1.388535,-4.09787 q 0,-0.508 0.508,-0.64347 0.745067,-0.2032 5.418666,-0.2032 5.113867,0 5.655733,0.3048 0.270934,0.13547 0.270934,0.54187 0,0.508 -0.508,0.64347 -0.745067,0.2032 -5.418667,0.2032 -5.113866,0 -5.655733,-0.3048 -0.270933,-0.13547 -0.270933,-0.54187 z m 8.771466,-2.67547 q -0.3048,-0.16933 -0.3048,-0.7112 0,-0.54186 0.3048,-0.67733 0.338667,-0.16933 1.388534,-0.16933 1.049866,0 1.354666,0.16933 0.338667,0.13547 0.338667,0.67733 0,0.54187 -0.338667,0.7112 -0.3048,0.13547 -1.354666,0.13547 -1.049867,0 -1.388534,-0.13547 z m -8.771466,-4.09786 q 0,-0.54187 0.508,-0.67734 0.643467,-0.16933 4.572,-0.16933 4.3688,0 4.842933,0.3048 0.237067,0.13547 0.237067,0.54187 0,0.54186 -0.508,0.67733 -0.643467,0.16933 -4.572,0.16933 -4.3688,0 -4.842933,-0.3048 -0.237067,-0.13546 -0.237067,-0.54186 z"
           id="path7019"
           style="stroke-width:0.33077168;stroke-miterlimit:4;stroke-dasharray:0.8820578, 0.88205780000000000;stroke-dashoffset:0" />
        <path
           d="m -82.630068,194.02763 q 0,-0.54186 0.508,-0.67733 0.643466,-0.16933 4.572,-0.16933 4.368799,0 4.842933,0.3048 0.237066,0.13546 0.237066,0.54186 0,0.54187 -0.508,0.67734 -0.643466,0.16933 -4.571999,0.16933 -4.3688,0 -4.842934,-0.3048 -0.237066,-0.13547 -0.237066,-0.54187 z m 3.691466,-2.67546 q -0.3048,-0.16934 -0.3048,-0.7112 0,-0.54187 0.3048,-0.67734 0.338667,-0.16933 1.388534,-0.16933 1.049866,0 1.354666,0.16933 0.338667,0.13547 0.338667,0.67734 0,0.54186 -0.338667,0.7112 -0.3048,0.13546 -1.354666,0.13546 -1.049867,0 -1.388534,-0.13546 z m 0,-3.38667 q -0.3048,-0.16933 -0.3048,-0.7112 0,-0.54187 0.3048,-0.67733 0.338667,-0.16934 1.388534,-0.16934 1.049866,0 1.354666,0.16934 0.338667,0.13546 0.338667,0.67733 0,0.54187 -0.338667,0.7112 -0.3048,0.13547 -1.354666,0.13547 -1.049867,0 -1.388534,-0.13547 z m 0,-3.38667 q -0.3048,-0.16933 -0.3048,-0.7112 0,-0.54186 0.3048,-0.67733 0.338667,-0.16933 1.388534,-0.16933 1.049866,0 1.354666,0.16933 0.338667,0.13547 0.338667,0.67733 0,0.54187 -0.338667,0.7112 -0.3048,0.13547 -1.354666,0.13547 -1.049867,0 -1.388534,-0.13547 z m -1.557866,-3.38666 q -0.440267,-0.13547 -0.440267,-0.7112 0,-0.57574 0.440267,-0.7112 0.440266,-0.13547 2.099733,-0.13547 1.659466,0 2.099733,0.13547 0.440267,0.13546 0.440267,0.7112 0,0.57573 -0.440267,0.7112 -0.440267,0.13546 -2.099733,0.13546 -1.659467,0 -2.099733,-0.13546 z m 1.557866,-6.77334 q -0.3048,-0.16933 -0.3048,-0.7112 0,-0.54186 0.3048,-0.67733 0.338667,-0.16933 1.388534,-0.16933 1.049866,0 1.354666,0.16933 0.338667,0.13547 0.338667,0.67733 0,0.54187 -0.338667,0.7112 -0.3048,0.13547 -1.354666,0.13547 -1.049867,0 -1.388534,-0.13547 z"
           id="path7021"
           style="stroke-width:0.33077168;stroke-miterlimit:4;stroke-dasharray:0.8820578, 0.88205780000000000;stroke-dashoffset:0" />
        <path
           d="m -56.925268,194.73883 q -0.3048,-0.16933 -0.3048,-0.7112 0,-0.54186 0.3048,-0.67733 0.338667,-0.16933 1.388534,-0.16933 1.049866,0 1.354666,0.16933 0.338667,0.13547 0.338667,0.67733 0,0.54187 -0.338667,0.7112 -0.3048,0.13547 -1.354666,0.13547 -1.049867,0 -1.388534,-0.13547 z m -10.159999,0 q -0.3048,-0.16933 -0.3048,-0.7112 0,-0.54186 0.3048,-0.67733 0.338667,-0.16933 1.388533,-0.16933 1.049867,0 1.354667,0.16933 0.338666,0.13547 0.338666,0.67733 0,0.54187 -0.338666,0.7112 -0.3048,0.13547 -1.354667,0.13547 -1.049866,0 -1.388533,-0.13547 z m 10.159999,-3.38666 q -0.3048,-0.16934 -0.3048,-0.7112 0,-0.54187 0.3048,-0.67734 0.338667,-0.16933 1.388534,-0.16933 1.049866,0 1.354666,0.16933 0.338667,0.13547 0.338667,0.67734 0,0.54186 -0.338667,0.7112 -0.3048,0.13546 -1.354666,0.13546 -1.049867,0 -1.388534,-0.13546 z m -10.159999,0 q -0.3048,-0.16934 -0.3048,-0.7112 0,-0.54187 0.3048,-0.67734 0.338667,-0.16933 1.388533,-0.16933 1.049867,0 1.354667,0.16933 0.338666,0.13547 0.338666,0.67734 0,0.54186 -0.338666,0.7112 -0.3048,0.13546 -1.354667,0.13546 -1.049866,0 -1.388533,-0.13546 z m 10.159999,-3.38667 q -0.3048,-0.16933 -0.3048,-0.7112 0,-0.54187 0.3048,-0.67733 0.338667,-0.16934 1.388534,-0.16934 1.049866,0 1.354666,0.16934 0.338667,0.13546 0.338667,0.67733 0,0.54187 -0.338667,0.7112 -0.3048,0.13547 -1.354666,0.13547 -1.049867,0 -1.388534,-0.13547 z m -10.159999,0 q -0.3048,-0.16933 -0.3048,-0.7112 0,-0.54187 0.3048,-0.67733 0.338667,-0.16934 1.388533,-0.16934 1.049867,0 1.354667,0.16934 0.338666,0.13546 0.338666,0.67733 0,0.54187 -0.338666,0.7112 -0.3048,0.13547 -1.354667,0.13547 -1.049866,0 -1.388533,-0.13547 z m 10.159999,-3.38667 q -0.3048,-0.16933 -0.3048,-0.7112 0,-0.54186 0.3048,-0.67733 0.338667,-0.16933 1.388534,-0.16933 1.049866,0 1.354666,0.16933 0.338667,0.13547 0.338667,0.67733 0,0.54187 -0.338667,0.7112 -0.3048,0.13547 -1.354666,0.13547 -1.049867,0 -1.388534,-0.13547 z m -10.024532,0 q -0.440267,-0.13546 -0.440267,-0.7112 0,-0.57573 0.440267,-0.7112 0.440266,-0.13546 2.099733,-0.13546 1.659466,0 2.099733,0.13546 0.440267,0.13547 0.440267,0.7112 0,0.57574 -0.440267,0.7112 -0.440267,0.13547 -2.099733,0.13547 -1.659467,0 -2.099733,-0.13547 z m -0.440267,-4.09786 q 0,-0.508 0.508,-0.64347 0.745067,-0.2032 5.418666,-0.2032 5.113867,0 5.655733,0.3048 0.270934,0.13547 0.270934,0.54187 0,0.508 -0.508,0.64346 -0.745067,0.2032 -5.418667,0.2032 -5.113866,0 -5.655733,-0.3048 -0.270933,-0.13546 -0.270933,-0.54186 z"
           id="path7023"
           style="stroke-width:0.33077168;stroke-miterlimit:4;stroke-dasharray:0.8820578, 0.88205780000000000;stroke-dashoffset:0" />
        <path
           d="m -45.071933,194.73883 q -0.3048,-0.16933 -0.3048,-0.7112 0,-0.54186 0.3048,-0.67733 0.338667,-0.16933 1.388533,-0.16933 1.049867,0 1.354667,0.16933 0.338666,0.13547 0.338666,0.67733 0,0.54187 -0.338666,0.7112 -0.3048,0.13547 -1.354667,0.13547 -1.049866,0 -1.388533,-0.13547 z m 0,-6.77333 q -0.3048,-0.16933 -0.3048,-0.7112 0,-0.54187 0.3048,-0.67733 0.338667,-0.16934 1.388533,-0.16934 1.049867,0 1.354667,0.16934 0.338666,0.13546 0.338666,0.67733 0,0.54187 -0.338666,0.7112 -0.3048,0.13547 -1.354667,0.13547 -1.049866,0 -1.388533,-0.13547 z m 0,-3.38667 q -0.3048,-0.16933 -0.3048,-0.7112 0,-0.54186 0.3048,-0.67733 0.338667,-0.16933 1.388533,-0.16933 1.049867,0 1.354667,0.16933 0.338666,0.13547 0.338666,0.67733 0,0.54187 -0.338666,0.7112 -0.3048,0.13547 -1.354667,0.13547 -1.049866,0 -1.388533,-0.13547 z m 1.8288,-3.38666 q -0.440267,-0.13547 -0.440267,-0.7112 0,-0.57574 0.440267,-0.7112 0.440267,-0.13547 2.099733,-0.13547 1.659467,0 2.099733,0.13547 0.440267,0.13546 0.440267,0.7112 0,0.57573 -0.440267,0.7112 -0.440266,0.13546 -2.099733,0.13546 -1.659466,0 -2.099733,-0.13546 z m 3.2512,-3.38667 q -0.3048,-0.16933 -0.3048,-0.7112 0,-0.54187 0.3048,-0.67733 0.338666,-0.16934 1.388533,-0.16934 1.049867,0 1.354667,0.16934 0.338666,0.13546 0.338666,0.67733 0,0.54187 -0.338666,0.7112 -0.3048,0.13547 -1.354667,0.13547 -1.049867,0 -1.388533,-0.13547 z m -10.16,0 q -0.3048,-0.16933 -0.3048,-0.7112 0,-0.54187 0.3048,-0.67733 0.338667,-0.16934 1.388533,-0.16934 1.049867,0 1.354667,0.16934 0.338667,0.13546 0.338667,0.67733 0,0.54187 -0.338667,0.7112 -0.3048,0.13547 -1.354667,0.13547 -1.049866,0 -1.388533,-0.13547 z m 1.388533,-4.09787 q 0,-0.54186 0.508,-0.67733 0.643467,-0.16933 4.572,-0.16933 4.3688,0 4.842933,0.3048 0.237067,0.13546 0.237067,0.54186 0,0.54187 -0.508,0.67734 -0.643467,0.16933 -4.572,0.16933 -4.3688,0 -4.842933,-0.3048 -0.237067,-0.13547 -0.237067,-0.54187 z"
           id="path7025"
           style="stroke-width:0.33077168;stroke-miterlimit:4;stroke-dasharray:0.8820578, 0.88205780000000000;stroke-dashoffset:0" />
      </g>
    </g>
  </g>
</svg>
